<?xml version="1.0" encoding="UTF-8"?>
<svg width="76px" height="90px" viewBox="0 0 76 90" version="1.1" xmlns="http://www.w3.org/2000/svg" xmlns:xlink="http://www.w3.org/1999/xlink">
    <!-- Generator: Sketch 41.2 (35397) - http://www.bohemiancoding.com/sketch -->
    <title>noun_93997_cc</title>
    <desc>Created with Sketch.</desc>
    <defs></defs>
    <g id="Page-1" stroke="none" stroke-width="1" fill="none" fill-rule="evenodd">
        <g id="noun_93997_cc" fill="#000000">
            <rect id="Rectangle-path" transform="translate(37.889800, 2.106550) rotate(44.979744) translate(-37.889800, -2.106550) " x="36.4017091" y="0.617959429" width="2.97618208" height="2.97718214"></rect>
            <rect id="Rectangle-path" x="37.146" y="74.419" width="1.384" height="9.991"></rect>
            <rect id="Rectangle-path" transform="translate(38.691429, 84.463830) rotate(14.596287) translate(-38.691429, -84.463830) " x="19.3854382" y="83.7713486" width="38.6119823" height="1.3849635"></rect>
            <rect id="Rectangle-path" transform="translate(37.075024, 84.351108) rotate(75.398169) translate(-37.075024, -84.351108) " x="36.3825248" y="65.0451301" width="1.38499841" height="38.6119556"></rect>
            <path d="M37.888,77.247 L0.169,39.532 L37.888,1.815 L75.604,39.532 L37.888,77.247 Z M2.998,39.532 L37.888,74.419 L72.776,39.532 L37.888,4.643 L2.998,39.532 Z" id="Shape"></path>
            <g id="Group" transform="translate(24.000000, 21.000000)">
                <circle id="Oval" cx="13.611" cy="3.749" r="2.929"></circle>
                <path d="M23.422,21.764 C21.52,22.021 20.824,24.035 20.824,24.035 L21.849,27.112 L13.829,21.508 L12.766,8.252 L9.326,6.275 L0.941,10.194 L3.246,14.203 L2.333,15.76 C2.003,16.455 1.928,33.593 1.928,33.593 L3.943,33.593 L6.981,22.498 L10.681,26.965 L10.937,33.593 L12.952,33.593 L13.427,26.306 L11.083,21.38 L18.832,26.623 C17.221,27.94 15.625,33.594 15.625,33.594 L28.771,33.594 L33.787,27.443 C26.281,21.544 25.328,21.508 23.422,21.764 Z M4.255,12.684 L3.12,10.925 L5.938,9.627 L4.255,12.684 Z M9.895,18.925 L11.505,14.642 L11.798,20.281 L9.895,18.925 Z" id="Shape"></path>
            </g>
        </g>
    </g>
</svg>