<?xml version="1.0" encoding="UTF-8"?>
<svg width="1000px" height="216px" viewBox="0 0 1000 216" version="1.1" xmlns="http://www.w3.org/2000/svg" xmlns:xlink="http://www.w3.org/1999/xlink">
    <!-- Generator: Sketch 52.2 (67145) - http://www.bohemiancoding.com/sketch -->
    <title>bangumiN banner</title>
    <desc>Created with Sketch.</desc>
    <defs>
        <polygon id="path-1" points="0 0 1000 0 1000 216 0 216"></polygon>
        <filter x="-2.8%" y="-7.6%" width="105.7%" height="115.2%" filterUnits="objectBoundingBox" id="filter-3">
            <feOffset dx="0" dy="2" in="SourceAlpha" result="shadowOffsetOuter1"></feOffset>
            <feGaussianBlur stdDeviation="2" in="shadowOffsetOuter1" result="shadowBlurOuter1"></feGaussianBlur>
            <feColorMatrix values="0 0 0 0 0   0 0 0 0 0   0 0 0 0 0  0 0 0 0.5 0" type="matrix" in="shadowBlurOuter1" result="shadowMatrixOuter1"></feColorMatrix>
            <feMerge>
                <feMergeNode in="shadowMatrixOuter1"></feMergeNode>
                <feMergeNode in="SourceGraphic"></feMergeNode>
            </feMerge>
        </filter>
    </defs>
    <g id="Page-1" stroke="none" stroke-width="1" fill="none" fill-rule="evenodd">
        <g id="bangumiN-banner">
            <mask id="mask-2" fill="white">
                <use xlink:href="#path-1"></use>
            </mask>
            <use id="Rectangle" fill-opacity="0.120272871" fill="#9B9B9B" opacity="0.895153986" xlink:href="#path-1"></use>
            <g id="legends-group" mask="url(#mask-2)">
                <g transform="translate(584.000000, -13.000000)">
                    <g id="legend" transform="translate(41.621879, 68.507870) rotate(-21.000000) translate(-41.621879, -68.507870) translate(15.121879, 23.507870)">
                        <rect id="Rectangle" fill="#8DD3C7" x="0" y="6" width="5" height="52"></rect>
                        <text id="187" font-family="Futura-Medium, Futura" font-size="25" font-weight="400" fill="#000000">
                            <tspan x="9" y="26">187</tspan>
                        </text>
                        <text id="Book" font-family="Futura-Medium, Futura" font-size="15" font-weight="400" fill="#9B9B9B">
                            <tspan x="11" y="54">Book</tspan>
                        </text>
                        <text id="13%" font-family="Futura-Medium, Futura" font-size="20" font-weight="400" fill="#9B9B9B">
                            <tspan x="11" y="85">13%</tspan>
                        </text>
                    </g>
                    <g id="legend-copy-2" transform="translate(172.744159, 36.838169) rotate(-78.000000) translate(-172.744159, -36.838169) translate(144.744159, -8.161831)">
                        <rect id="Rectangle" fill="#BEBADA" x="0" y="6" width="5" height="52"></rect>
                        <text id="252" font-family="Futura-Medium, Futura" font-size="25" font-weight="400" fill="#000000">
                            <tspan x="9" y="26">252</tspan>
                        </text>
                        <text id="Music" font-family="Futura-Medium, Futura" font-size="15" font-weight="400" fill="#9B9B9B">
                            <tspan x="9" y="54">Music</tspan>
                        </text>
                        <text id="18%" font-family="Futura-Medium, Futura" font-size="20" font-weight="400" fill="#9B9B9B">
                            <tspan x="14" y="85">18%</tspan>
                        </text>
                    </g>
                    <g id="legend-copy-3" transform="translate(267.000000, 0.000000)">
                        <rect id="Rectangle" fill="#FB8072" x="0" y="6" width="5" height="52"></rect>
                        <text id="329" font-family="Futura-Medium, Futura" font-size="25" font-weight="400" fill="#000000">
                            <tspan x="9" y="26">329</tspan>
                        </text>
                        <text id="Game" font-family="Futura-Medium, Futura" font-size="15" font-weight="400" fill="#9B9B9B">
                            <tspan x="9" y="54">Game</tspan>
                        </text>
                        <text id="24%" font-family="Futura-Medium, Futura" font-size="20" font-weight="400" fill="#9B9B9B">
                            <tspan x="14" y="85">24%</tspan>
                        </text>
                    </g>
                    <g id="legend-copy-4" transform="translate(241.899815, 132.675525) rotate(41.000000) translate(-241.899815, -132.675525) translate(214.899815, 87.675525)">
                        <rect id="Rectangle" fill="#80B1D3" x="0" y="6" width="5" height="52"></rect>
                        <text id="182" font-family="Futura-Medium, Futura" font-size="25" font-weight="400" fill="#000000">
                            <tspan x="9" y="26">182</tspan>
                        </text>
                        <text id="Real" font-family="Futura-Medium, Futura" font-size="15" font-weight="400" fill="#9B9B9B">
                            <tspan x="9" y="54">Real</tspan>
                        </text>
                        <text id="13%" font-family="Futura-Medium, Futura" font-size="20" font-weight="400" fill="#9B9B9B">
                            <tspan x="11" y="85">13%</tspan>
                        </text>
                    </g>
                    <g id="legend-copy" transform="translate(129.388517, 133.377070) rotate(18.000000) translate(-129.388517, -133.377070) translate(98.388517, 88.377070)">
                        <rect id="Rectangle" fill="#FFFFB3" x="0" y="6" width="5" height="52"></rect>
                        <text id="443" font-family="Futura-Medium, Futura" font-size="25" font-weight="400" fill="#000000">
                            <tspan x="13" y="26">443</tspan>
                        </text>
                        <text id="Anime" font-family="Futura-Medium, Futura" font-size="15" font-weight="400" fill="#9B9B9B">
                            <tspan x="11" y="54">Anime</tspan>
                        </text>
                        <text id="32%" font-family="Futura-Medium, Futura" font-size="20" font-weight="400" fill="#9B9B9B">
                            <tspan x="18" y="85">32%</tspan>
                        </text>
                    </g>
                </g>
            </g>
            <g id="swordman" filter="url(#filter-3)" mask="url(#mask-2)">
                <g transform="translate(0.000000, 58.000000)">
                    <g id="man-with-sword">
                        <rect id="Rectangle" fill="#742525" x="60.7272727" y="15.047619" width="7.59090909" height="7.52380952"></rect>
                        <rect id="Rectangle-Copy" fill="#742525" x="68.3181818" y="15.047619" width="7.59090909" height="7.52380952"></rect>
                        <rect id="Rectangle-Copy-3" fill="#A2370D" x="75.9090909" y="15.047619" width="7.59090909" height="7.52380952"></rect>
                        <rect id="Rectangle-Copy-2" fill="#A2370D" x="83.5" y="15.047619" width="7.59090909" height="7.52380952"></rect>
                        <rect id="Rectangle-Copy-4" fill="#742525" x="53.1363636" y="22.5714286" width="7.59090909" height="7.52380952"></rect>
                        <rect id="Rectangle-Copy-11" fill="#A2370D" x="60.7272727" y="22.5714286" width="7.59090909" height="7.52380952"></rect>
                        <rect id="Rectangle-Copy-10" fill="#DF5735" x="68.3181818" y="22.5714286" width="7.59090909" height="7.52380952"></rect>
                        <rect id="Rectangle-Copy-9" fill="#DF5735" x="75.9090909" y="22.5714286" width="7.59090909" height="7.52380952"></rect>
                        <rect id="Rectangle-Copy-8" fill="#DF5735" x="83.5" y="22.5714286" width="7.59090909" height="7.52380952"></rect>
                        <rect id="Rectangle-Copy-17" fill="#742525" x="45.5454545" y="30.0952381" width="7.59090909" height="7.52380952"></rect>
                        <rect id="Rectangle-Copy-16" fill="#A2370D" x="53.1363636" y="30.0952381" width="7.59090909" height="7.52380952"></rect>
                        <rect id="Rectangle-Copy-15" fill="#DF5735" x="60.7272727" y="30.0952381" width="7.59090909" height="7.52380952"></rect>
                        <rect id="Rectangle-Copy-14" fill="#DF5735" x="68.3181818" y="30.0952381" width="7.59090909" height="7.52380952"></rect>
                        <rect id="Rectangle-Copy-13" fill="#DF5735" x="75.9090909" y="30.0952381" width="7.59090909" height="7.52380952"></rect>
                        <rect id="Rectangle-Copy-12" fill="#DF5735" x="83.5" y="30.0952381" width="7.59090909" height="7.52380952"></rect>
                        <rect id="Rectangle-Copy-26" fill="#742525" x="37.9545455" y="37.6190476" width="7.59090909" height="7.52380952"></rect>
                        <rect id="Rectangle-Copy-25" fill="#A2370D" x="45.5454545" y="37.6190476" width="7.59090909" height="7.52380952"></rect>
                        <rect id="Rectangle-Copy-24" fill="#A2370D" x="53.1363636" y="37.6190476" width="7.59090909" height="7.52380952"></rect>
                        <rect id="Rectangle-Copy-23" fill="#A2370D" x="60.7272727" y="37.6190476" width="7.59090909" height="7.52380952"></rect>
                        <rect id="Rectangle-Copy-22" fill="#A2370D" x="68.3181818" y="37.6190476" width="7.59090909" height="7.52380952"></rect>
                        <rect id="Rectangle-Copy-21" fill="#DF5735" x="75.9090909" y="37.6190476" width="7.59090909" height="7.52380952"></rect>
                        <rect id="Rectangle-Copy-20" fill="#DF5735" x="83.5" y="37.6190476" width="7.59090909" height="7.52380952"></rect>
                        <rect id="Rectangle-Copy-34" fill="#742525" x="37.9545455" y="45.1428571" width="7.59090909" height="7.52380952"></rect>
                        <rect id="Rectangle-Copy-33" fill="#742525" x="45.5454545" y="45.1428571" width="7.59090909" height="7.52380952"></rect>
                        <rect id="Rectangle-Copy-32" fill="#742525" x="53.1363636" y="45.1428571" width="7.59090909" height="7.52380952"></rect>
                        <rect id="Rectangle-Copy-31" fill="#A2370D" x="60.7272727" y="45.1428571" width="7.59090909" height="7.52380952"></rect>
                        <rect id="Rectangle-Copy-30" fill="#A2370D" x="68.3181818" y="45.1428571" width="7.59090909" height="7.52380952"></rect>
                        <rect id="Rectangle-Copy-29" fill="#DF5735" x="75.9090909" y="45.1428571" width="7.59090909" height="7.52380952"></rect>
                        <rect id="Rectangle-Copy-28" fill="#A2370D" x="83.5" y="45.1428571" width="7.59090909" height="7.52380952"></rect>
                        <rect id="Rectangle-Copy-41" fill="#140B28" x="45.5454545" y="52.6666667" width="7.59090909" height="7.52380952"></rect>
                        <rect id="Rectangle-Copy-40" fill="#742525" x="53.1363636" y="52.6666667" width="7.59090909" height="7.52380952"></rect>
                        <rect id="Rectangle-Copy-39" fill="#A2370D" x="60.7272727" y="52.6666667" width="7.59090909" height="7.52380952"></rect>
                        <rect id="Rectangle-Copy-38" fill="#A2370D" x="68.3181818" y="52.6666667" width="7.59090909" height="7.52380952"></rect>
                        <rect id="Rectangle-Copy-37" fill="#A2370D" x="75.9090909" y="52.6666667" width="7.59090909" height="7.52380952"></rect>
                        <rect id="Rectangle-Copy-36" fill="#DDAB92" x="83.5" y="52.6666667" width="7.59090909" height="7.52380952"></rect>
                        <rect id="Rectangle-Copy-51" fill="#9B9B9B" x="30.3636364" y="60.1904762" width="7.59090909" height="7.52380952"></rect>
                        <rect id="Rectangle-Copy-50" fill="#9B9B9B" x="37.9545455" y="60.1904762" width="7.59090909" height="7.52380952"></rect>
                        <rect id="Rectangle-Copy-49" fill="#9B9B9B" x="45.5454545" y="60.1904762" width="7.59090909" height="7.52380952"></rect>
                        <rect id="Rectangle-Copy-48" fill="#9B9B9B" x="53.1363636" y="60.1904762" width="7.59090909" height="7.52380952"></rect>
                        <rect id="Rectangle-Copy-47" fill="#9B9B9B" x="60.7272727" y="60.1904762" width="7.59090909" height="7.52380952"></rect>
                        <rect id="Rectangle-Copy-46" fill="#9B9B9B" x="68.3181818" y="60.1904762" width="7.59090909" height="7.52380952"></rect>
                        <rect id="Rectangle-Copy-45" fill="#9B9B9B" x="75.9090909" y="60.1904762" width="7.59090909" height="7.52380952"></rect>
                        <rect id="Rectangle-Copy-44" fill="#9B9B9B" x="83.5" y="60.1904762" width="7.59090909" height="7.52380952"></rect>
                        <rect id="Rectangle-Copy-59" fill="#3B0908" x="30.3636364" y="60.1904762" width="7.59090909" height="7.52380952"></rect>
                        <rect id="Rectangle-Copy-58" fill="#140B28" x="37.9545455" y="60.1904762" width="7.59090909" height="7.52380952"></rect>
                        <rect id="Rectangle-Copy-57" fill="#140B28" x="45.5454545" y="60.1904762" width="7.59090909" height="7.52380952"></rect>
                        <rect id="Rectangle-Copy-56" fill="#140B28" x="53.1363636" y="60.1904762" width="7.59090909" height="7.52380952"></rect>
                        <rect id="Rectangle-Copy-55" fill="#742525" x="60.7272727" y="60.1904762" width="7.59090909" height="7.52380952"></rect>
                        <rect id="Rectangle-Copy-54" fill="#A2370D" x="68.3181818" y="60.1904762" width="7.59090909" height="7.52380952"></rect>
                        <rect id="Rectangle-Copy-53" fill="#C7754D" x="75.9090909" y="60.1904762" width="7.59090909" height="7.52380952"></rect>
                        <rect id="Rectangle-Copy-52" fill="#DDAB92" x="83.5" y="60.1904762" width="7.59090909" height="7.52380952"></rect>
                        <rect id="Rectangle-Copy-107" fill="#742525" x="30.3636364" y="67.7142857" width="7.59090909" height="7.52380952"></rect>
                        <rect id="Rectangle-Copy-106" fill="#742525" x="37.9545455" y="67.7142857" width="7.59090909" height="7.52380952"></rect>
                        <rect id="Rectangle-Copy-105" fill="#140B28" x="45.5454545" y="67.7142857" width="7.59090909" height="7.52380952"></rect>
                        <rect id="Rectangle-Copy-104" fill="#742525" x="53.1363636" y="67.7142857" width="7.59090909" height="7.52380952"></rect>
                        <rect id="Rectangle-Copy-103" fill="#C32727" x="60.7272727" y="67.7142857" width="7.59090909" height="7.52380952"></rect>
                        <rect id="Rectangle-Copy-102" fill="#C32727" x="68.3181818" y="67.7142857" width="7.59090909" height="7.52380952"></rect>
                        <rect id="Rectangle-Copy-101" fill="#C32727" x="75.9090909" y="67.7142857" width="7.59090909" height="7.52380952"></rect>
                        <rect id="Rectangle-Copy-100" fill="#21311B" x="83.5" y="67.7142857" width="7.59090909" height="7.52380952"></rect>
                        <rect id="Rectangle-Copy-99" fill="#742525" x="30.3636364" y="75.2380952" width="7.59090909" height="7.52380952"></rect>
                        <rect id="Rectangle-Copy-98" fill="#140B28" x="37.9545455" y="75.2380952" width="7.59090909" height="7.52380952"></rect>
                        <rect id="Rectangle-Copy-97" fill="#140B28" x="45.5454545" y="75.2380952" width="7.59090909" height="7.52380952"></rect>
                        <rect id="Rectangle-Copy-96" fill="#742525" x="53.1363636" y="75.2380952" width="7.59090909" height="7.52380952"></rect>
                        <rect id="Rectangle-Copy-95" fill="#742525" x="60.7272727" y="75.2380952" width="7.59090909" height="7.52380952"></rect>
                        <rect id="Rectangle-Copy-94" fill="#C32727" x="68.3181818" y="75.2380952" width="7.59090909" height="7.52380952"></rect>
                        <rect id="Rectangle-Copy-93" fill="#426336" x="75.9090909" y="75.2380952" width="7.59090909" height="7.52380952"></rect>
                        <rect id="Rectangle-Copy-92" fill="#426336" x="83.5" y="75.2380952" width="7.59090909" height="7.52380952"></rect>
                        <rect id="Rectangle-Copy-91" fill="#140B28" x="30.3636364" y="82.7619048" width="7.59090909" height="7.52380952"></rect>
                        <rect id="Rectangle-Copy-89" fill="#140B28" x="45.5454545" y="82.7619048" width="7.59090909" height="7.52380952"></rect>
                        <rect id="Rectangle-Copy-88" fill="#21311B" x="53.1363636" y="82.7619048" width="7.59090909" height="7.52380952"></rect>
                        <rect id="Rectangle-Copy-87" fill="#21311B" x="60.7272727" y="82.7619048" width="7.59090909" height="7.52380952"></rect>
                        <rect id="Rectangle-Copy-86" fill="#21311B" x="68.3181818" y="82.7619048" width="7.59090909" height="7.52380952"></rect>
                        <rect id="Rectangle-Copy-85" fill="#426336" x="75.9090909" y="82.7619048" width="7.59090909" height="7.52380952"></rect>
                        <rect id="Rectangle-Copy-84" fill="#21311B" x="83.5" y="82.7619048" width="7.59090909" height="7.52380952"></rect>
                        <rect id="Rectangle-Copy-81" fill="#140B28" x="45.5454545" y="90.2857143" width="7.59090909" height="7.52380952"></rect>
                        <rect id="Rectangle-Copy-80" fill="#140B28" x="53.1363636" y="90.2857143" width="7.59090909" height="7.52380952"></rect>
                        <rect id="Rectangle-Copy-79" fill="#140B28" x="60.7272727" y="90.2857143" width="7.59090909" height="7.52380952"></rect>
                        <rect id="Rectangle-Copy-78" fill="#21311B" x="68.3181818" y="90.2857143" width="7.59090909" height="7.52380952"></rect>
                        <rect id="Rectangle-Copy-77" fill="#21311B" x="75.9090909" y="90.2857143" width="7.59090909" height="7.52380952"></rect>
                        <rect id="Rectangle-Copy-76" fill="#140B28" x="83.5" y="90.2857143" width="7.59090909" height="7.52380952"></rect>
                        <rect id="Rectangle-Copy-73" fill="#9B9B9B" x="45.5454545" y="97.8095238" width="7.59090909" height="7.52380952"></rect>
                        <rect id="Rectangle-Copy-72" fill="#9B9B9B" x="53.1363636" y="97.8095238" width="7.59090909" height="7.52380952"></rect>
                        <rect id="Rectangle-Copy-71" fill="#9B9B9B" x="60.7272727" y="97.8095238" width="7.59090909" height="7.52380952"></rect>
                        <rect id="Rectangle-Copy-70" fill="#9B9B9B" x="68.3181818" y="97.8095238" width="7.59090909" height="7.52380952"></rect>
                        <rect id="Rectangle-Copy-69" fill="#9B9B9B" x="75.9090909" y="97.8095238" width="7.59090909" height="7.52380952"></rect>
                        <rect id="Rectangle-Copy-68" fill="#9B9B9B" x="83.5" y="97.8095238" width="7.59090909" height="7.52380952"></rect>
                        <rect id="Rectangle-Copy-65" fill="#140B28" x="45.5454545" y="97.8095238" width="7.59090909" height="7.52380952"></rect>
                        <rect id="Rectangle-Copy-64" fill="#140B28" x="53.1363636" y="97.8095238" width="7.59090909" height="7.52380952"></rect>
                        <rect id="Rectangle-Copy-63" fill="#140B28" x="60.7272727" y="97.8095238" width="7.59090909" height="7.52380952"></rect>
                        <rect id="Rectangle-Copy-62" fill="#140B28" x="68.3181818" y="97.8095238" width="7.59090909" height="7.52380952"></rect>
                        <rect id="Rectangle-Copy-61" fill="#A6A6A6" x="75.9090909" y="97.8095238" width="7.59090909" height="7.52380952"></rect>
                        <rect id="Rectangle-Copy-60" fill="#D9D1BA" x="83.5" y="97.8095238" width="7.59090909" height="7.52380952"></rect>
                        <rect id="Rectangle-Copy-154" fill="#331010" x="37.9545455" y="105.333333" width="7.59090909" height="7.52380952"></rect>
                        <rect id="Rectangle-Copy-153" fill="#140B28" x="45.5454545" y="105.333333" width="7.59090909" height="7.52380952"></rect>
                        <rect id="Rectangle-Copy-152" fill="#21311B" x="53.1363636" y="105.333333" width="7.59090909" height="7.52380952"></rect>
                        <rect id="Rectangle-Copy-151" fill="#21311B" x="60.7272727" y="105.333333" width="7.59090909" height="7.52380952"></rect>
                        <rect id="Rectangle-Copy-150" fill="#21311B" x="68.3181818" y="105.333333" width="7.59090909" height="7.52380952"></rect>
                        <rect id="Rectangle-Copy-149" fill="#A6A6A6" x="75.9090909" y="105.333333" width="7.59090909" height="7.52380952"></rect>
                        <rect id="Rectangle-Copy-148" fill="#D9D1BA" x="83.5" y="105.333333" width="7.59090909" height="7.52380952"></rect>
                        <rect id="Rectangle-Copy-147" fill="#140B28" x="30.3636364" y="112.857143" width="7.59090909" height="7.52380952"></rect>
                        <rect id="Rectangle-Copy-146" fill="#21311B" x="37.9545455" y="112.857143" width="7.59090909" height="7.52380952"></rect>
                        <rect id="Rectangle-Copy-145" fill="#21311B" x="45.5454545" y="112.857143" width="7.59090909" height="7.52380952"></rect>
                        <rect id="Rectangle-Copy-144" fill="#21311B" x="53.1363636" y="112.857143" width="7.59090909" height="7.52380952"></rect>
                        <rect id="Rectangle-Copy-143" fill="#21311B" x="60.7272727" y="112.857143" width="7.59090909" height="7.52380952"></rect>
                        <rect id="Rectangle-Copy-142" fill="#A6A6A6" x="68.3181818" y="112.857143" width="7.59090909" height="7.52380952"></rect>
                        <rect id="Rectangle-Copy-141" fill="#A6A6A6" x="75.9090909" y="112.857143" width="7.59090909" height="7.52380952"></rect>
                        <rect id="Rectangle-Copy-140" fill="#A6A6A6" x="83.5" y="112.857143" width="7.59090909" height="7.52380952"></rect>
                        <rect id="Rectangle-Copy-139" fill="#140B28" x="30.3636364" y="120.380952" width="7.59090909" height="7.52380952"></rect>
                        <rect id="Rectangle-Copy-138" fill="#140B28" x="37.9545455" y="120.380952" width="7.59090909" height="7.52380952"></rect>
                        <rect id="Rectangle-Copy-137" fill="#21311B" x="45.5454545" y="120.380952" width="7.59090909" height="7.52380952"></rect>
                        <rect id="Rectangle-Copy-136" fill="#140B28" x="53.1363636" y="120.380952" width="7.59090909" height="7.52380952"></rect>
                        <rect id="Rectangle-Copy-135" fill="#140B28" x="60.7272727" y="120.380952" width="7.59090909" height="7.52380952"></rect>
                        <rect id="Rectangle-Copy-134" fill="#140B28" x="68.3181818" y="120.380952" width="7.59090909" height="7.52380952"></rect>
                        <rect id="Rectangle-Copy-133" fill="#140B28" x="75.9090909" y="120.380952" width="7.59090909" height="7.52380952"></rect>
                        <rect id="Rectangle-Copy-132" fill="#331010" x="83.5" y="120.380952" width="7.59090909" height="7.52380952"></rect>
                        <rect id="Rectangle-Copy-131" fill="#A2370D" x="30.3636364" y="127.904762" width="7.59090909" height="7.52380952"></rect>
                        <rect id="Rectangle-Copy-130" fill="#331010" x="37.9545455" y="127.904762" width="7.59090909" height="7.52380952"></rect>
                        <rect id="Rectangle-Copy-129" fill="#331010" x="45.5454545" y="127.904762" width="7.59090909" height="7.52380952"></rect>
                        <rect id="Rectangle-Copy-128" fill="#331010" x="53.1363636" y="127.904762" width="7.59090909" height="7.52380952"></rect>
                        <rect id="Rectangle-Copy-123" fill="#9B9B9B" x="30.3636364" y="135.428571" width="7.59090909" height="7.52380952"></rect>
                        <rect id="Rectangle-Copy-122" fill="#9B9B9B" x="37.9545455" y="135.428571" width="7.59090909" height="7.52380952"></rect>
                        <rect id="Rectangle-Copy-121" fill="#9B9B9B" x="45.5454545" y="135.428571" width="7.59090909" height="7.52380952"></rect>
                        <rect id="Rectangle-Copy-120" fill="#9B9B9B" x="53.1363636" y="135.428571" width="7.59090909" height="7.52380952"></rect>
                        <rect id="Rectangle-Copy-119" fill="#9B9B9B" x="60.7272727" y="135.428571" width="7.59090909" height="7.52380952"></rect>
                        <rect id="Rectangle-Copy-118" fill="#9B9B9B" x="68.3181818" y="135.428571" width="7.59090909" height="7.52380952"></rect>
                        <rect id="Rectangle-Copy-117" fill="#9B9B9B" x="75.9090909" y="135.428571" width="7.59090909" height="7.52380952"></rect>
                        <rect id="Rectangle-Copy-116" fill="#9B9B9B" x="83.5" y="135.428571" width="7.59090909" height="7.52380952"></rect>
                        <rect id="Rectangle-Copy-115" fill="#A2370D" x="30.3636364" y="135.428571" width="7.59090909" height="7.52380952"></rect>
                        <rect id="Rectangle-Copy-114" fill="#A2370D" x="37.9545455" y="135.428571" width="7.59090909" height="7.52380952"></rect>
                        <rect id="Rectangle-Copy-113" fill="#331010" x="45.5454545" y="135.428571" width="7.59090909" height="7.52380952"></rect>
                        <rect id="Rectangle-Copy-112" fill="#95B7A6" x="53.1363636" y="135.428571" width="7.59090909" height="7.52380952"></rect>
                        <rect id="Rectangle-Copy-111" fill="#95B7A6" x="60.7272727" y="135.428571" width="7.59090909" height="7.52380952"></rect>
                        <rect id="Rectangle-Copy-110" fill="#95B7A6" x="68.3181818" y="135.428571" width="7.59090909" height="7.52380952"></rect>
                        <rect id="Rectangle-Copy-109" fill="#95B7A6" x="75.9090909" y="135.428571" width="7.59090909" height="7.52380952"></rect>
                        <rect id="Rectangle-Copy-108" fill="#95B7A6" x="83.5" y="135.428571" width="7.59090909" height="7.52380952"></rect>
                        <rect id="Rectangle-Copy-203" fill="#331010" x="30.3636364" y="142.952381" width="7.59090909" height="7.52380952"></rect>
                        <rect id="Rectangle-Copy-202" fill="#95B7A6" x="37.9545455" y="142.952381" width="7.59090909" height="7.52380952"></rect>
                        <rect id="Rectangle-Copy-201" fill="#95B7A6" x="45.5454545" y="142.952381" width="7.59090909" height="7.52380952"></rect>
                        <rect id="Rectangle-Copy-200" fill="#95B7A6" x="53.1363636" y="142.952381" width="7.59090909" height="7.52380952"></rect>
                        <rect id="Rectangle-Copy-199" fill="#95B7A6" x="60.7272727" y="142.952381" width="7.59090909" height="7.52380952"></rect>
                        <rect id="Rectangle-Copy-198" fill="#95B7A6" x="68.3181818" y="142.952381" width="7.59090909" height="7.52380952"></rect>
                        <rect id="Rectangle-Copy-197" fill="#95B7A6" x="75.9090909" y="142.952381" width="7.59090909" height="7.52380952"></rect>
                        <rect id="Rectangle-Copy-196" fill="#95B7A6" x="83.5" y="142.952381" width="7.59090909" height="7.52380952"></rect>
                        <rect id="Rectangle-Copy-195" fill="#331010" x="30.3636364" y="150.47619" width="7.59090909" height="7.52380952"></rect>
                        <rect id="Rectangle-Copy-194" fill="#95B7A6" x="37.9545455" y="150.47619" width="7.59090909" height="7.52380952"></rect>
                        <rect id="Rectangle-Copy-193" fill="#95B7A6" x="45.5454545" y="150.47619" width="7.59090909" height="7.52380952"></rect>
                        <rect id="Rectangle-Copy-192" fill="#95B7A6" x="53.1363636" y="150.47619" width="7.59090909" height="7.52380952"></rect>
                        <rect id="Rectangle-Copy-191" fill="#95B7A6" x="60.7272727" y="150.47619" width="7.59090909" height="7.52380952"></rect>
                        <rect id="Rectangle-Copy-232" fill="#3B0908" x="22.7727273" y="67.7142857" width="7.59090909" height="7.52380952"></rect>
                        <rect id="Rectangle-Copy-229" fill="#3B0908" x="7.59090909" y="75.2380952" width="7.59090909" height="7.52380952"></rect>
                        <rect id="Rectangle-Copy-228" fill="#C32727" x="15.1818182" y="75.2380952" width="7.59090909" height="7.52380952"></rect>
                        <rect id="Rectangle-Copy-227" fill="#C32727" x="22.7727273" y="75.2380952" width="7.59090909" height="7.52380952"></rect>
                        <rect id="Rectangle-Copy-225" fill="#3B0908" x="0" y="82.7619048" width="7.59090909" height="7.52380952"></rect>
                        <rect id="Rectangle-Copy-224" fill="#742525" x="7.59090909" y="82.7619048" width="7.59090909" height="7.52380952"></rect>
                        <rect id="Rectangle-Copy-223" fill="#C32727" x="15.1818182" y="82.7619048" width="7.59090909" height="7.52380952"></rect>
                        <rect id="Rectangle-Copy-222" fill="#C32727" x="22.7727273" y="82.7619048" width="7.59090909" height="7.52380952"></rect>
                        <rect id="Rectangle-Copy-220" fill="#742525" x="0" y="90.2857143" width="7.59090909" height="7.52380952"></rect>
                        <rect id="Rectangle-Copy-219" fill="#742525" x="7.59090909" y="90.2857143" width="7.59090909" height="7.52380952"></rect>
                        <rect id="Rectangle-Copy-218" fill="#3B0908" x="15.1818182" y="90.2857143" width="7.59090909" height="7.52380952"></rect>
                        <rect id="Rectangle-Copy-217" fill="#140B28" x="22.7727273" y="90.2857143" width="7.59090909" height="7.52380952"></rect>
                        <rect id="Rectangle-Copy-215" fill="#9B9B9B" x="0" y="97.8095238" width="7.59090909" height="7.52380952"></rect>
                        <rect id="Rectangle-Copy-184" fill="#3B0908" x="0" y="97.8095238" width="7.59090909" height="7.52380952"></rect>
                        <rect id="Rectangle-Copy-159" fill="#9B9B9B" x="7.59090909" y="135.428571" width="7.59090909" height="7.52380952"></rect>
                        <rect id="Rectangle-Copy-158" fill="#9B9B9B" x="15.1818182" y="135.428571" width="7.59090909" height="7.52380952"></rect>
                        <rect id="Rectangle-Copy-157" fill="#9B9B9B" x="22.7727273" y="135.428571" width="7.59090909" height="7.52380952"></rect>
                        <rect id="Rectangle-Copy-126" fill="#95B7A6" x="7.59090909" y="135.428571" width="7.59090909" height="7.52380952"></rect>
                        <rect id="Rectangle-Copy-125" fill="#95B7A6" x="15.1818182" y="135.428571" width="7.59090909" height="7.52380952"></rect>
                        <rect id="Rectangle-Copy-124" fill="#331010" x="22.7727273" y="135.428571" width="7.59090909" height="7.52380952"></rect>
                        <rect id="Rectangle-Copy-295" fill="#331010" x="22.7727273" y="127.904762" width="7.59090909" height="7.52380952"></rect>
                        <rect id="Rectangle-Copy-212" fill="#95B7A6" x="0" y="142.952381" width="7.59090909" height="7.52380952"></rect>
                        <rect id="Rectangle-Copy-211" fill="#95B7A6" x="7.59090909" y="142.952381" width="7.59090909" height="7.52380952"></rect>
                        <rect id="Rectangle-Copy-210" fill="#331010" x="15.1818182" y="142.952381" width="7.59090909" height="7.52380952"></rect>
                        <rect id="Rectangle-Copy-209" fill="#742525" x="22.7727273" y="142.952381" width="7.59090909" height="7.52380952"></rect>
                        <rect id="Rectangle-Copy-206" fill="#331010" x="7.59090909" y="150.47619" width="7.59090909" height="7.52380952"></rect>
                        <rect id="Rectangle-Copy-205" fill="#742525" x="15.1818182" y="150.47619" width="7.59090909" height="7.52380952"></rect>
                        <rect id="Rectangle-Copy-204" fill="#331010" x="22.7727273" y="150.47619" width="7.59090909" height="7.52380952"></rect>
                        <rect id="Rectangle-Copy-190" fill="#95B7A6" x="68.3181818" y="150.47619" width="7.59090909" height="7.52380952"></rect>
                        <rect id="Rectangle-Copy-189" fill="#95B7A6" x="75.9090909" y="150.47619" width="7.59090909" height="7.52380952"></rect>
                        <rect id="Rectangle-Copy-188" fill="#95B7A6" x="83.5" y="150.47619" width="7.59090909" height="7.52380952"></rect>
                        <rect id="Rectangle-Copy-251" fill="#331010" x="91.0909091" y="142.952381" width="7.59090909" height="7.52380952"></rect>
                        <rect id="Rectangle-Copy-250" fill="#742525" x="98.6818182" y="142.952381" width="7.59090909" height="7.52380952"></rect>
                        <rect id="Rectangle-Copy-249" fill="#331010" x="106.272727" y="142.952381" width="7.59090909" height="7.52380952"></rect>
                        <rect id="Rectangle-Copy-248" fill="#95B7A6" x="113.863636" y="142.952381" width="7.59090909" height="7.52380952"></rect>
                        <rect id="Rectangle-Copy-247" fill="#95B7A6" x="121.454545" y="142.952381" width="7.59090909" height="7.52380952"></rect>
                        <rect id="Rectangle-Copy-246" fill="#95B7A6" x="129.045455" y="142.952381" width="7.59090909" height="7.52380952"></rect>
                        <rect id="Rectangle-Copy-243" fill="#331010" x="91.0909091" y="150.47619" width="7.59090909" height="7.52380952"></rect>
                        <rect id="Rectangle-Copy-242" fill="#742525" x="98.6818182" y="150.47619" width="7.59090909" height="7.52380952"></rect>
                        <rect id="Rectangle-Copy-241" fill="#742525" x="106.272727" y="150.47619" width="7.59090909" height="7.52380952"></rect>
                        <rect id="Rectangle-Copy-240" fill="#331010" x="113.863636" y="150.47619" width="7.59090909" height="7.52380952"></rect>
                        <rect id="Rectangle-Copy-239" fill="#95B7A6" x="121.454545" y="150.47619" width="7.59090909" height="7.52380952"></rect>
                        <rect id="Rectangle-Copy-299" fill="#21311B" x="91.0909091" y="105.333333" width="7.59090909" height="7.52380952"></rect>
                        <rect id="Rectangle-Copy-298" fill="#21311B" x="98.6818182" y="105.333333" width="7.59090909" height="7.52380952"></rect>
                        <rect id="Rectangle-Copy-297" fill="#140B28" x="106.272727" y="105.333333" width="7.59090909" height="7.52380952"></rect>
                        <rect id="Rectangle-Copy-291" fill="#21311B" x="91.0909091" y="112.857143" width="7.59090909" height="7.52380952"></rect>
                        <rect id="Rectangle-Copy-290" fill="#331010" x="98.6818182" y="112.857143" width="7.59090909" height="7.52380952"></rect>
                        <rect id="Rectangle-Copy-289" fill="#140B28" x="106.272727" y="112.857143" width="7.59090909" height="7.52380952"></rect>
                        <rect id="Rectangle-Copy-288" fill="#331010" x="113.863636" y="112.857143" width="7.59090909" height="7.52380952"></rect>
                        <rect id="Rectangle-Copy-283" fill="#331010" x="91.0909091" y="120.380952" width="7.59090909" height="7.52380952"></rect>
                        <rect id="Rectangle-Copy-282" fill="#A2370D" x="98.6818182" y="120.380952" width="7.59090909" height="7.52380952"></rect>
                        <rect id="Rectangle-Copy-281" fill="#A2370D" x="106.272727" y="120.380952" width="7.59090909" height="7.52380952"></rect>
                        <rect id="Rectangle-Copy-280" fill="#331010" x="113.863636" y="120.380952" width="7.59090909" height="7.52380952"></rect>
                        <rect id="Rectangle-Copy-274" fill="#331010" x="98.6818182" y="127.904762" width="7.59090909" height="7.52380952"></rect>
                        <rect id="Rectangle-Copy-273" fill="#331010" x="106.272727" y="127.904762" width="7.59090909" height="7.52380952"></rect>
                        <rect id="Rectangle-Copy-272" fill="#331010" x="113.863636" y="127.904762" width="7.59090909" height="7.52380952"></rect>
                        <rect id="Rectangle-Copy-267" fill="#9B9B9B" x="91.0909091" y="135.428571" width="7.59090909" height="7.52380952"></rect>
                        <rect id="Rectangle-Copy-266" fill="#9B9B9B" x="98.6818182" y="135.428571" width="7.59090909" height="7.52380952"></rect>
                        <rect id="Rectangle-Copy-265" fill="#9B9B9B" x="106.272727" y="135.428571" width="7.59090909" height="7.52380952"></rect>
                        <rect id="Rectangle-Copy-264" fill="#9B9B9B" x="113.863636" y="135.428571" width="7.59090909" height="7.52380952"></rect>
                        <rect id="Rectangle-Copy-263" fill="#9B9B9B" x="121.454545" y="135.428571" width="7.59090909" height="7.52380952"></rect>
                        <rect id="Rectangle-Copy-259" fill="#95B7A6" x="91.0909091" y="135.428571" width="7.59090909" height="7.52380952"></rect>
                        <rect id="Rectangle-Copy-258" fill="#331010" x="98.6818182" y="135.428571" width="7.59090909" height="7.52380952"></rect>
                        <rect id="Rectangle-Copy-257" fill="#331010" x="106.272727" y="135.428571" width="7.59090909" height="7.52380952"></rect>
                        <rect id="Rectangle-Copy-256" fill="#95B7A6" x="113.863636" y="135.428571" width="7.59090909" height="7.52380952"></rect>
                        <rect id="Rectangle-Copy-255" fill="#95B7A6" x="121.454545" y="135.428571" width="7.59090909" height="7.52380952"></rect>
                        <rect id="Rectangle-Copy-347" fill="#426336" x="91.0909091" y="67.7142857" width="7.59090909" height="7.52380952"></rect>
                        <rect id="Rectangle-Copy-346" fill="#426336" x="98.6818182" y="67.7142857" width="7.59090909" height="7.52380952"></rect>
                        <rect id="Rectangle-Copy-345" fill="#140B28" x="106.272727" y="67.7142857" width="7.59090909" height="7.52380952"></rect>
                        <rect id="Rectangle-Copy-339" fill="#21311B" x="91.0909091" y="75.2380952" width="7.59090909" height="7.52380952"></rect>
                        <rect id="Rectangle-Copy-338" fill="#140B28" x="98.6818182" y="75.2380952" width="7.59090909" height="7.52380952"></rect>
                        <rect id="Rectangle-Copy-331" fill="#21311B" x="91.0909091" y="82.7619048" width="7.59090909" height="7.52380952"></rect>
                        <rect id="Rectangle-Copy-330" fill="#140B28" x="98.6818182" y="82.7619048" width="7.59090909" height="7.52380952"></rect>
                        <rect id="Rectangle-Copy-323" fill="#140B28" x="91.0909091" y="90.2857143" width="7.59090909" height="7.52380952"></rect>
                        <rect id="Rectangle-Copy-315" fill="#9B9B9B" x="91.0909091" y="97.8095238" width="7.59090909" height="7.52380952"></rect>
                        <rect id="Rectangle-Copy-314" fill="#9B9B9B" x="98.6818182" y="97.8095238" width="7.59090909" height="7.52380952"></rect>
                        <rect id="Rectangle-Copy-307" fill="#21311B" x="91.0909091" y="97.8095238" width="7.59090909" height="7.52380952"></rect>
                        <rect id="Rectangle-Copy-306" fill="#140B28" x="98.6818182" y="97.8095238" width="7.59090909" height="7.52380952"></rect>
                        <rect id="Rectangle-Copy-395" fill="#DF5735" x="91.0909091" y="30.0952381" width="7.59090909" height="7.52380952"></rect>
                        <rect id="Rectangle-Copy-396" fill="#A2370D" x="91.0909091" y="22.5714286" width="7.59090909" height="7.52380952"></rect>
                        <rect id="Rectangle-Copy-394" fill="#742525" x="98.6818182" y="30.0952381" width="7.59090909" height="7.52380952"></rect>
                        <rect id="Rectangle-Copy-391" fill="#140B28" x="121.454545" y="30.0952381" width="7.59090909" height="7.52380952"></rect>
                        <rect id="Rectangle-Copy-389" fill="#140B28" x="136.636364" y="30.0952381" width="7.59090909" height="7.52380952"></rect>
                        <rect id="Rectangle-Copy-387" fill="#A2370D" x="91.0909091" y="37.6190476" width="7.59090909" height="7.52380952"></rect>
                        <rect id="Rectangle-Copy-386" fill="#742525" x="98.6818182" y="37.6190476" width="7.59090909" height="7.52380952"></rect>
                        <rect id="Rectangle-Copy-384" fill="#331010" x="113.863636" y="37.6190476" width="7.59090909" height="7.52380952"></rect>
                        <rect id="Rectangle-Copy-382" fill="#140B28" x="129.045455" y="37.6190476" width="7.59090909" height="7.52380952"></rect>
                        <rect id="Rectangle-Copy-379" fill="#DDAB92" x="91.0909091" y="45.1428571" width="7.59090909" height="7.52380952"></rect>
                        <rect id="Rectangle-Copy-378" fill="#A2370D" x="98.6818182" y="45.1428571" width="7.59090909" height="7.52380952"></rect>
                        <rect id="Rectangle-Copy-377" fill="#140B28" x="106.272727" y="45.1428571" width="7.59090909" height="7.52380952"></rect>
                        <rect id="Rectangle-Copy-376" fill="#742525" x="113.863636" y="45.1428571" width="7.59090909" height="7.52380952"></rect>
                        <rect id="Rectangle-Copy-375" fill="#140B28" x="121.454545" y="45.1428571" width="7.59090909" height="7.52380952"></rect>
                        <rect id="Rectangle-Copy-371" fill="#140B28" x="91.0909091" y="52.6666667" width="7.59090909" height="7.52380952"></rect>
                        <rect id="Rectangle-Copy-370" fill="#A2370D" x="98.6818182" y="52.6666667" width="7.59090909" height="7.52380952"></rect>
                        <rect id="Rectangle-Copy-369" fill="#331010" x="106.272727" y="52.6666667" width="7.59090909" height="7.52380952"></rect>
                        <rect id="Rectangle-Copy-368" fill="#331010" x="113.863636" y="52.6666667" width="7.59090909" height="7.52380952"></rect>
                        <rect id="Rectangle-Copy-367" fill="#331010" x="121.454545" y="52.6666667" width="7.59090909" height="7.52380952"></rect>
                        <rect id="Rectangle-Copy-363" fill="#9B9B9B" x="91.0909091" y="60.1904762" width="7.59090909" height="7.52380952"></rect>
                        <rect id="Rectangle-Copy-362" fill="#9B9B9B" x="98.6818182" y="60.1904762" width="7.59090909" height="7.52380952"></rect>
                        <rect id="Rectangle-Copy-361" fill="#9B9B9B" x="106.272727" y="60.1904762" width="7.59090909" height="7.52380952"></rect>
                        <rect id="Rectangle-Copy-360" fill="#9B9B9B" x="113.863636" y="60.1904762" width="7.59090909" height="7.52380952"></rect>
                        <rect id="Rectangle-Copy-355" fill="#DDAB92" x="91.0909091" y="60.1904762" width="7.59090909" height="7.52380952"></rect>
                        <rect id="Rectangle-Copy-354" fill="#21311B" x="98.6818182" y="60.1904762" width="7.59090909" height="7.52380952"></rect>
                        <rect id="Rectangle-Copy-353" fill="#21311B" x="106.272727" y="60.1904762" width="7.59090909" height="7.52380952"></rect>
                        <rect id="Rectangle-Copy-352" fill="#140B28" x="113.863636" y="60.1904762" width="7.59090909" height="7.52380952"></rect>
                        <rect id="Rectangle-Copy-399" fill="#140B28" x="144.227273" y="7.52380952" width="7.59090909" height="7.52380952"></rect>
                        <rect id="Rectangle-Copy-397" fill="#140B28" x="144.227273" y="22.5714286" width="7.59090909" height="7.52380952"></rect>
                        <rect id="Rectangle-Copy-405" fill="#140B28" x="151.818182" y="0" width="7.59090909" height="7.52380952"></rect>
                        <rect id="Rectangle-Copy-403" fill="#140B28" x="151.818182" y="15.047619" width="7.59090909" height="7.52380952"></rect>
                        <rect id="Rectangle-Copy-410" fill="#140B28" x="159.409091" y="0" width="7.59090909" height="7.52380952"></rect>
                        <rect id="Rectangle-Copy-409" fill="#140B28" x="159.409091" y="7.52380952" width="7.59090909" height="7.52380952"></rect>
                        <rect id="Rectangle-Copy-417" fill="#140B28" x="129.045455" y="22.5714286" width="7.59090909" height="7.52380952"></rect>
                        <rect id="Rectangle-Copy-413" fill="#140B28" x="136.636364" y="15.047619" width="7.59090909" height="7.52380952"></rect>
                    </g>
                    <g id="sword-gas" transform="translate(347.000000, 82.000000)">
                        <rect id="Rectangle-Copy-294" fill="#CA9840" x="7.6" y="7.6" width="7.6" height="7.6"></rect>
                        <rect id="Rectangle-Copy-19" fill="#CA9840" x="15.2" y="7.6" width="7.6" height="7.6"></rect>
                        <rect id="Rectangle-Copy-18" fill="#876935" x="22.8" y="7.6" width="7.6" height="7.6"></rect>
                        <rect id="Rectangle-Copy-287" fill="#CA9840" x="7.6" y="15.2" width="7.6" height="7.6"></rect>
                        <rect id="Rectangle-Copy-286" fill="#CA9840" x="15.2" y="15.2" width="7.6" height="7.6"></rect>
                        <rect id="Rectangle-Copy-279" fill="#CA9840" x="0" y="22.8" width="7.6" height="7.6"></rect>
                        <rect id="Rectangle-Copy-278" fill="#CA9840" x="7.6" y="22.8" width="7.6" height="7.6"></rect>
                        <rect id="Rectangle-Copy-271" fill="#CA9840" x="0" y="30.4" width="7.6" height="7.6"></rect>
                        <rect id="Rectangle-Copy-270" fill="#CA9840" x="7.6" y="30.4" width="7.6" height="7.6"></rect>
                        <rect id="Rectangle-Copy-269" fill="#876935" x="15.2" y="30.4" width="7.6" height="7.6"></rect>
                        <rect id="Rectangle-Copy-261" fill="#9B9B9B" x="0" y="38" width="7.6" height="7.6"></rect>
                        <rect id="Rectangle-Copy-253" fill="#9B9B9B" x="22.8" y="38" width="7.6" height="7.6"></rect>
                        <rect id="Rectangle-Copy-245" fill="#CA9840" x="0" y="38" width="7.6" height="7.6"></rect>
                        <rect id="Rectangle-Copy-237" fill="#876935" x="22.8" y="38" width="7.6" height="7.6"></rect>
                        <rect id="Rectangle-Copy-318" fill="#876935" x="38" y="7.6" width="7.6" height="7.6"></rect>
                        <rect id="Rectangle-Copy-430" fill="#876935" x="30.4" y="7.6" width="7.6" height="7.6"></rect>
                        <rect id="Rectangle-Copy-317" fill="#876935" x="30.4" y="15.2" width="7.6" height="7.6"></rect>
                        <rect id="Rectangle-Copy-316" fill="#876935" x="38" y="15.2" width="7.6" height="7.6"></rect>
                        <rect id="Rectangle-Copy-293" fill="#9B9B9B" x="53.2" y="38" width="7.6" height="7.6"></rect>
                        <rect id="Rectangle-Copy-252" fill="#876935" x="53.2" y="38" width="7.6" height="7.6"></rect>
                        <rect id="Rectangle-Copy-66" fill="#876935" x="22.8" y="45.6" width="7.6" height="7.6"></rect>
                        <rect id="Rectangle-Copy-388" fill="#CA9840" x="7.6" y="53.2" width="7.6" height="7.6"></rect>
                        <rect id="Rectangle-Copy-383" fill="#876935" x="22.8" y="53.2" width="7.6" height="7.6"></rect>
                        <rect id="Rectangle-Copy-374" fill="#CA9840" x="15.2" y="60.8" width="7.6" height="7.6"></rect>
                        <rect id="Rectangle-Copy-373" fill="#CA9840" x="22.8" y="60.8" width="7.6" height="7.6"></rect>
                        <rect id="Rectangle-Copy-364" fill="#CA9840" x="22.8" y="68.4" width="7.6" height="7.6"></rect>
                        <rect id="Rectangle-Copy-344" fill="#876935" x="38" y="45.6" width="7.6" height="7.6"></rect>
                        <rect id="Rectangle-Copy-393" fill="#876935" x="30.4" y="45.6" width="7.6" height="7.6"></rect>
                        <rect id="Rectangle-Copy-42" fill="#876935" x="53.2" y="45.6" width="7.6" height="7.6"></rect>
                        <rect id="Rectangle-Copy-343" fill="#876935" x="30.4" y="53.2" width="7.6" height="7.6"></rect>
                        <rect id="Rectangle-Copy-342" fill="#876935" x="38" y="53.2" width="7.6" height="7.6"></rect>
                        <rect id="Rectangle-Copy-341" fill="#876935" x="45.6" y="53.2" width="7.6" height="7.6"></rect>
                        <rect id="Rectangle-Copy-340" fill="#876935" x="53.2" y="53.2" width="7.6" height="7.6"></rect>
                        <rect id="Rectangle-Copy-337" fill="#876935" x="30.4" y="60.8" width="7.6" height="7.6"></rect>
                        <rect id="Rectangle-Copy-333" fill="#CA9840" x="30.4" y="68.4" width="7.6" height="7.6"></rect>
                        <rect id="Rectangle-Copy-332" fill="#CA9840" x="38" y="68.4" width="7.6" height="7.6"></rect>
                        <rect id="Rectangle-Copy-329" fill="#CA9840" x="45.6" y="68.4" width="7.6" height="7.6"></rect>
                        <rect id="Rectangle-Copy-406" fill="#876935" x="60.8" y="22.8" width="7.6" height="7.6"></rect>
                        <rect id="Rectangle-Copy-422" fill="#876935" x="15.2" y="0" width="7.6" height="7.6"></rect>
                        <rect id="Rectangle-Copy-421" fill="#876935" x="22.8" y="0" width="7.6" height="7.6"></rect>
                        <rect id="Rectangle-Copy-400" fill="#876935" x="60.8" y="45.6" width="7.6" height="7.6"></rect>
                        <rect id="Rectangle-Copy-398" fill="#876935" x="60.8" y="53.2" width="7.6" height="7.6"></rect>
                        <rect id="Rectangle-Copy-359" fill="#876935" x="68.4" y="53.2" width="7.6" height="7.6"></rect>
                    </g>
                </g>
            </g>
        </g>
    </g>
</svg>