<?xml version="1.0" encoding="UTF-8"?>
<svg width="1000px" height="216px" viewBox="0 0 1000 216" version="1.1" xmlns="http://www.w3.org/2000/svg" xmlns:xlink="http://www.w3.org/1999/xlink">
    <!-- Generator: Sketch 46.2 (44496) - http://www.bohemiancoding.com/sketch -->
    <title>meta report banner</title>
    <desc>Created with Sketch.</desc>
    <defs>
        <linearGradient x1="0%" y1="50%" x2="144.199663%" y2="50%" id="linearGradient-1">
            <stop stop-color="#57CFBF" offset="0%"></stop>
            <stop stop-color="#2F85DE" offset="100%"></stop>
        </linearGradient>
        <rect id="path-2" x="0" y="0" width="1000" height="216"></rect>
    </defs>
    <g id="Page-1" stroke="none" stroke-width="1" fill="none" fill-rule="evenodd">
        <g id="meta-report-banner">
            <mask id="mask-3" fill="white">
                <use xlink:href="#path-2"></use>
            </mask>
            <use id="Rectangle" fill="url(#linearGradient-1)" opacity="0.895153986" xlink:href="#path-2"></use>
            <g id="graph-paths" mask="url(#mask-3)">
                <g transform="translate(0.000000, 27.000000)">
                    <path d="M523,36 C569.900947,29.2345612 564.7617,22 613,22 C661.2383,22 662.497635,31.0401955 717,29 C742.460334,28.0469394 777.390768,22.6683207 820,15 C868.603394,6.25291894 921.1144,2.09121409 930,1 C941.116905,-0.365233928 964.450238,1.96809941 1000,8 L1000,37 C988.371354,36.3333333 965.038021,36 930,36 C877.442969,36 786.457788,46.0493604 714,52 C641.542212,57.9506396 680.841318,52.0148857 589,59 C497.158682,65.9851143 534.454834,53.7660343 356.5,59 C457.221947,51.2818431 476.099053,42.7654388 523,36 Z" id="Path-2" fill="#F0B737"></path>
                    <path d="M1000,37 L1000,121 C966.411167,122.536525 941.077833,122.536525 924,121 C891.559861,118.0813 837,108 823,106 C809,104 656.683019,94.0897648 596,92 C535.316981,89.9102352 488.11849,90.1751866 360,88 C298.455829,86.9551074 236.431772,83.1749694 185,83 C136.919384,82.8364311 75.2527173,82.8364311 0,83 L0,76 C87.805073,73.0883562 149.47174,70.7550229 185,69 C257.634287,65.4120158 314.816666,60.1886531 356,59 C463.099841,55.9088331 508.067794,57.3673895 578,56 C647.932206,54.6326105 602.04233,57.5513971 714,50 C825.95767,42.4486029 891,35 922,34 C942.666667,33.3333333 968.666667,34.3333333 1000,37 Z" id="Path-3" fill="#8E4CCD"></path>
                    <path d="M1000,121 C965.333333,118.333333 941.666667,116.666667 929,116 C910,115 893.848152,111.054912 817,104 C740.151848,96.9450877 682.040079,95.0240035 614,92 C545.959921,88.9759965 501.782212,89.7136608 457,89 C427.145192,88.5242262 395.478525,88.1908928 362,88 C394.636551,89.0400888 433.636551,90.3734222 479,92 C547.045173,94.4398668 559,94 608,97 C657,100 738.394782,101.799227 817,108.5 C895.605218,115.200773 893,120 936,123 C964.666667,125 986,127 1000,129 L1000,121 Z" id="Path-4" fill="#DE2E56"></path>
                    <path d="M1000,128 L1000,154 C882.138476,139.299712 799.138476,129.633046 751,125 C678.792287,118.050431 702.346582,127.19352 572,120 C441.653418,112.80648 408.944273,100.006089 260,93 C160.703818,88.3292737 74.0371516,85.9959403 0,86 L0,83 C43.519659,81.4058885 98.8529924,81.0725551 166,82 C266.720511,83.3911673 280.312968,85.7118479 362,88 C443.687032,90.2881521 487,92 523,93 C559,94 579,94 603,95 C627,96 709.665837,100.689409 765,104 C796.030554,105.856529 803.026425,106.245453 814,107 C822.594673,107.590973 833.96473,108.047063 859,112 C874.436878,114.437402 892.592658,117.782633 911,120 C923.271561,121.478245 952.938228,124.144912 1000,128 Z" id="Path-5" fill="#38C585"></path>
                </g>
            </g>
            <g id="line-marks" opacity="0.65" mask="url(#mask-3)" stroke-linecap="square" stroke="#FFFFFF" stroke-width="0.6" stroke-dasharray="1,3">
                <g transform="translate(151.000000, 35.000000)">
                    <path d="M0.3,0.5 L0.3,128.5" id="Line-2"></path>
                    <path d="M174.3,0.5 L174.3,128.5" id="Line-2-Copy"></path>
                    <path d="M349.3,0.5 L349.3,128.5" id="Line-2-Copy-2"></path>
                    <path d="M529.3,0.5 L529.3,128.5" id="Line-2-Copy-3"></path>
                    <path d="M698.3,0.5 L698.3,128.5" id="Line-2-Copy-4"></path>
                </g>
            </g>
            <g id="year-marks" opacity="0.601166214" mask="url(#mask-3)" fill="#FFFFFF">
                <g transform="translate(137.000000, 169.000000)">
                    <path d="M0.768,4.124 C1.02400128,3.71599796 1.32799824,3.41600096 1.68,3.224 C2.03200176,3.03199904 2.45999748,2.936 2.964,2.936 C3.27600156,2.936 3.5719986,2.9759996 3.852,3.056 C4.1320014,3.1360004 4.37399898,3.26399912 4.578,3.44 C4.78200102,3.61600088 4.9439994,3.83599868 5.064,4.1 C5.1840006,4.36400132 5.244,4.68399812 5.244,5.06 C5.244,5.33200136 5.21200032,5.58599882 5.148,5.822 C5.08399968,6.05800118 4.99000062,6.28799888 4.866,6.512 C4.74199938,6.73600112 4.58600094,6.96199886 4.398,7.19 C4.20999906,7.41800114 3.98800128,7.65999872 3.732,7.916 L3.204,8.444 C3.003999,8.644001 2.80200102,8.84999894 2.598,9.062 C2.39399898,9.27400106 2.20000092,9.48399896 2.016,9.692 C1.83199908,9.90000104 1.67600064,10.0919991 1.548,10.268 L2.688,10.268 C3.26400288,10.268 3.77399778,10.2580001 4.218,10.238 C4.66200222,10.2179999 5.05199832,10.1960001 5.388,10.172 C5.3479998,10.3480009 5.328,10.4959994 5.328,10.616 C5.328,10.7280006 5.3479998,10.8639992 5.388,11.024 C4.95599784,11.0079999 4.52800212,11 4.104,11 L1.53,11 C1.10199786,11 0.67200216,11.0079999 0.24,11.024 L0.24,10.88 C0.8000028,10.3279972 1.28599794,9.8420021 1.698,9.422 C2.11000206,9.0019979 2.45999856,8.62400168 2.748,8.288 C3.03600144,7.95199832 3.2699991,7.64800136 3.45,7.376 C3.6300009,7.10399864 3.77199948,6.84600122 3.876,6.602 C3.98000052,6.35799878 4.04999982,6.11800118 4.086,5.882 C4.12200018,5.64599882 4.14,5.39200136 4.14,5.12 C4.14,4.52799704 4.00600134,4.09000142 3.738,3.806 C3.46999866,3.52199858 3.1560018,3.38 2.796,3.38 C2.53999872,3.38 2.32000092,3.42599954 2.136,3.518 C1.95199908,3.61000046 1.8000006,3.72199934 1.68,3.854 C1.5599994,3.98600066 1.46800032,4.12799924 1.404,4.28 C1.33999968,4.43200076 1.29600012,4.5679994 1.272,4.688 L1.188,4.712 L0.768,4.124 Z M7.2,7.064 C7.2,6.49599716 7.24799952,5.9620025 7.344,5.462 C7.44000048,4.9619975 7.5979989,4.52600186 7.818,4.154 C8.0380011,3.78199814 8.3279982,3.4860011 8.688,3.266 C9.0480018,3.0459989 9.4879974,2.936 10.008,2.936 C10.5840029,2.936 11.0539982,3.0459989 11.418,3.266 C11.7820018,3.4860011 12.067999,3.78199814 12.276,4.154 C12.484001,4.52600186 12.6259996,4.9619975 12.702,5.462 C12.7780004,5.9620025 12.816,6.49599716 12.816,7.064 C12.816,7.61600276 12.7600006,8.13999752 12.648,8.636 C12.5359994,9.13200248 12.3660011,9.56799812 12.138,9.944 C11.9099989,10.3200019 11.6200018,10.6159989 11.268,10.832 C10.9159982,11.0480011 10.4960024,11.156 10.008,11.156 C9.43199712,11.156 8.96200182,11.052001 8.598,10.844 C8.23399818,10.635999 7.94800104,10.3460019 7.74,9.974 C7.53199896,9.60199814 7.39000038,9.1660025 7.314,8.666 C7.23799962,8.1659975 7.2,7.63200284 7.2,7.064 Z M8.184,7.064 C8.184,7.59200264 8.2139997,8.08399772 8.274,8.54 C8.3340003,8.99600228 8.43599928,9.39199832 8.58,9.728 C8.72400072,10.0640017 8.91199884,10.327999 9.144,10.52 C9.37600116,10.712001 9.66399828,10.808 10.008,10.808 C10.3520017,10.808 10.6399988,10.712001 10.872,10.52 C11.1040012,10.327999 11.2919993,10.0640017 11.436,9.728 C11.5800007,9.39199832 11.6819997,8.99600228 11.742,8.54 C11.8020003,8.08399772 11.832,7.59200264 11.832,7.064 C11.832,6.53599736 11.8020003,6.04400228 11.742,5.588 C11.6819997,5.13199772 11.5800007,4.73600168 11.436,4.4 C11.2919993,4.06399832 11.1040012,3.80000096 10.872,3.608 C10.6399988,3.41599904 10.3520017,3.32 10.008,3.32 C9.66399828,3.32 9.37600116,3.40799912 9.144,3.584 C8.91199884,3.76000088 8.72400072,4.01199836 8.58,4.34 C8.43599928,4.66800164 8.3340003,5.0619977 8.274,5.522 C8.2139997,5.9820023 8.184,6.49599716 8.184,7.064 Z M14.832,4.496 C14.7439996,4.3359992 14.6240008,4.20800048 14.472,4.112 L14.472,4.028 C14.9280023,3.84399908 15.3939976,3.6420011 15.87,3.422 C16.3460024,3.2019989 16.7919979,2.98800104 17.208,2.78 L17.292,2.84 C17.2599998,3.36800264 17.2360001,3.88999742 17.22,4.406 C17.2039999,4.92200258 17.196,5.44399736 17.196,5.972 L17.196,7.976 C17.196,8.50400264 17.2039999,9.02199746 17.22,9.53 C17.2360001,10.0380025 17.2599998,10.5359976 17.292,11.024 C17.1959995,11.0079999 17.1020005,11 17.01,11 L16.446,11 C16.3539995,11 16.2600005,11.0079999 16.164,11.024 C16.2040002,10.5279975 16.2299999,10.0280025 16.242,9.524 C16.2540001,9.01999748 16.26,8.50400264 16.26,7.976 L16.26,3.704 L14.832,4.496 Z M20.784,4.124 C21.0400013,3.71599796 21.3439982,3.41600096 21.696,3.224 C22.0480018,3.03199904 22.4759975,2.936 22.98,2.936 C23.2920016,2.936 23.5879986,2.9759996 23.868,3.056 C24.1480014,3.1360004 24.389999,3.26399912 24.594,3.44 C24.798001,3.61600088 24.9599994,3.83599868 25.08,4.1 C25.2000006,4.36400132 25.26,4.68399812 25.26,5.06 C25.26,5.33200136 25.2280003,5.58599882 25.164,5.822 C25.0999997,6.05800118 25.0060006,6.28799888 24.882,6.512 C24.7579994,6.73600112 24.6020009,6.96199886 24.414,7.19 C24.2259991,7.41800114 24.0040013,7.65999872 23.748,7.916 L23.22,8.444 C23.019999,8.644001 22.818001,8.84999894 22.614,9.062 C22.409999,9.27400106 22.2160009,9.48399896 22.032,9.692 C21.8479991,9.90000104 21.6920006,10.0919991 21.564,10.268 L22.704,10.268 C23.2800029,10.268 23.7899978,10.2580001 24.234,10.238 C24.6780022,10.2179999 25.0679983,10.1960001 25.404,10.172 C25.3639998,10.3480009 25.344,10.4959994 25.344,10.616 C25.344,10.7280006 25.3639998,10.8639992 25.404,11.024 C24.9719978,11.0079999 24.5440021,11 24.12,11 L21.546,11 C21.1179979,11 20.6880022,11.0079999 20.256,11.024 L20.256,10.88 C20.8160028,10.3279972 21.3019979,9.8420021 21.714,9.422 C22.1260021,9.0019979 22.4759986,8.62400168 22.764,8.288 C23.0520014,7.95199832 23.2859991,7.64800136 23.466,7.376 C23.6460009,7.10399864 23.7879995,6.84600122 23.892,6.602 C23.9960005,6.35799878 24.0659998,6.11800118 24.102,5.882 C24.1380002,5.64599882 24.156,5.39200136 24.156,5.12 C24.156,4.52799704 24.0220013,4.09000142 23.754,3.806 C23.4859987,3.52199858 23.1720018,3.38 22.812,3.38 C22.5559987,3.38 22.3360009,3.42599954 22.152,3.518 C21.9679991,3.61000046 21.8160006,3.72199934 21.696,3.854 C21.5759994,3.98600066 21.4840003,4.12799924 21.42,4.28 C21.3559997,4.43200076 21.3120001,4.5679994 21.288,4.688 L21.204,4.712 L20.784,4.124 Z" id="2012"></path>
                    <path d="M175.768,4.124 C176.024001,3.71599796 176.327998,3.41600096 176.68,3.224 C177.032002,3.03199904 177.459997,2.936 177.964,2.936 C178.276002,2.936 178.571999,2.9759996 178.852,3.056 C179.132001,3.1360004 179.373999,3.26399912 179.578,3.44 C179.782001,3.61600088 179.943999,3.83599868 180.064,4.1 C180.184001,4.36400132 180.244,4.68399812 180.244,5.06 C180.244,5.33200136 180.212,5.58599882 180.148,5.822 C180.084,6.05800118 179.990001,6.28799888 179.866,6.512 C179.741999,6.73600112 179.586001,6.96199886 179.398,7.19 C179.209999,7.41800114 178.988001,7.65999872 178.732,7.916 L178.204,8.444 C178.003999,8.644001 177.802001,8.84999894 177.598,9.062 C177.393999,9.27400106 177.200001,9.48399896 177.016,9.692 C176.831999,9.90000104 176.676001,10.0919991 176.548,10.268 L177.688,10.268 C178.264003,10.268 178.773998,10.2580001 179.218,10.238 C179.662002,10.2179999 180.051998,10.1960001 180.388,10.172 C180.348,10.3480009 180.328,10.4959994 180.328,10.616 C180.328,10.7280006 180.348,10.8639992 180.388,11.024 C179.955998,11.0079999 179.528002,11 179.104,11 L176.53,11 C176.101998,11 175.672002,11.0079999 175.24,11.024 L175.24,10.88 C175.800003,10.3279972 176.285998,9.8420021 176.698,9.422 C177.110002,9.0019979 177.459999,8.62400168 177.748,8.288 C178.036001,7.95199832 178.269999,7.64800136 178.45,7.376 C178.630001,7.10399864 178.771999,6.84600122 178.876,6.602 C178.980001,6.35799878 179.05,6.11800118 179.086,5.882 C179.122,5.64599882 179.14,5.39200136 179.14,5.12 C179.14,4.52799704 179.006001,4.09000142 178.738,3.806 C178.469999,3.52199858 178.156002,3.38 177.796,3.38 C177.539999,3.38 177.320001,3.42599954 177.136,3.518 C176.951999,3.61000046 176.800001,3.72199934 176.68,3.854 C176.559999,3.98600066 176.468,4.12799924 176.404,4.28 C176.34,4.43200076 176.296,4.5679994 176.272,4.688 L176.188,4.712 L175.768,4.124 Z M182.2,7.064 C182.2,6.49599716 182.248,5.9620025 182.344,5.462 C182.44,4.9619975 182.597999,4.52600186 182.818,4.154 C183.038001,3.78199814 183.327998,3.4860011 183.688,3.266 C184.048002,3.0459989 184.487997,2.936 185.008,2.936 C185.584003,2.936 186.053998,3.0459989 186.418,3.266 C186.782002,3.4860011 187.067999,3.78199814 187.276,4.154 C187.484001,4.52600186 187.626,4.9619975 187.702,5.462 C187.778,5.9620025 187.816,6.49599716 187.816,7.064 C187.816,7.61600276 187.760001,8.13999752 187.648,8.636 C187.535999,9.13200248 187.366001,9.56799812 187.138,9.944 C186.909999,10.3200019 186.620002,10.6159989 186.268,10.832 C185.915998,11.0480011 185.496002,11.156 185.008,11.156 C184.431997,11.156 183.962002,11.052001 183.598,10.844 C183.233998,10.635999 182.948001,10.3460019 182.74,9.974 C182.531999,9.60199814 182.39,9.1660025 182.314,8.666 C182.238,8.1659975 182.2,7.63200284 182.2,7.064 Z M183.184,7.064 C183.184,7.59200264 183.214,8.08399772 183.274,8.54 C183.334,8.99600228 183.435999,9.39199832 183.58,9.728 C183.724001,10.0640017 183.911999,10.327999 184.144,10.52 C184.376001,10.712001 184.663998,10.808 185.008,10.808 C185.352002,10.808 185.639999,10.712001 185.872,10.52 C186.104001,10.327999 186.291999,10.0640017 186.436,9.728 C186.580001,9.39199832 186.682,8.99600228 186.742,8.54 C186.802,8.08399772 186.832,7.59200264 186.832,7.064 C186.832,6.53599736 186.802,6.04400228 186.742,5.588 C186.682,5.13199772 186.580001,4.73600168 186.436,4.4 C186.291999,4.06399832 186.104001,3.80000096 185.872,3.608 C185.639999,3.41599904 185.352002,3.32 185.008,3.32 C184.663998,3.32 184.376001,3.40799912 184.144,3.584 C183.911999,3.76000088 183.724001,4.01199836 183.58,4.34 C183.435999,4.66800164 183.334,5.0619977 183.274,5.522 C183.214,5.9820023 183.184,6.49599716 183.184,7.064 Z M189.832,4.496 C189.744,4.3359992 189.624001,4.20800048 189.472,4.112 L189.472,4.028 C189.928002,3.84399908 190.393998,3.6420011 190.87,3.422 C191.346002,3.2019989 191.791998,2.98800104 192.208,2.78 L192.292,2.84 C192.26,3.36800264 192.236,3.88999742 192.22,4.406 C192.204,4.92200258 192.196,5.44399736 192.196,5.972 L192.196,7.976 C192.196,8.50400264 192.204,9.02199746 192.22,9.53 C192.236,10.0380025 192.26,10.5359976 192.292,11.024 C192.196,11.0079999 192.102,11 192.01,11 L191.446,11 C191.354,11 191.26,11.0079999 191.164,11.024 C191.204,10.5279975 191.23,10.0280025 191.242,9.524 C191.254,9.01999748 191.26,8.50400264 191.26,7.976 L191.26,3.704 L189.832,4.496 Z M195.964,3.656 C196.124001,3.4959992 196.345999,3.3360008 196.63,3.176 C196.914001,3.0159992 197.275998,2.936 197.716,2.936 C198.028002,2.936 198.323999,2.97199964 198.604,3.044 C198.884001,3.11600036 199.127999,3.22399928 199.336,3.368 C199.544001,3.51200072 199.707999,3.69599888 199.828,3.92 C199.948001,4.14400112 200.008,4.41199844 200.008,4.724 C200.008,5.01200144 199.956001,5.26999886 199.852,5.498 C199.747999,5.72600114 199.618001,5.92199918 199.462,6.086 C199.305999,6.25000082 199.132001,6.38399948 198.94,6.488 C198.747999,6.59200052 198.564001,6.66799976 198.388,6.716 L198.388,6.788 C198.596001,6.80400008 198.815999,6.8419997 199.048,6.902 C199.280001,6.9620003 199.495999,7.0619993 199.696,7.202 C199.896001,7.3420007 200.061999,7.52799884 200.194,7.76 C200.326001,7.99200116 200.392,8.2879982 200.392,8.648 C200.392,9.01600184 200.318001,9.35399846 200.17,9.662 C200.021999,9.97000154 199.814001,10.2359989 199.546,10.46 C199.277999,10.6840011 198.956002,10.8559994 198.58,10.976 C198.203998,11.0960006 197.788002,11.156 197.332,11.156 C196.915998,11.156 196.564001,11.1180004 196.276,11.042 C195.987999,10.9659996 195.736001,10.8760005 195.52,10.772 C195.552,10.7079997 195.582,10.6020007 195.61,10.454 C195.638,10.3059993 195.656,10.1720006 195.664,10.052 L195.736,10.004 C195.808,10.0840004 195.895999,10.1719995 196,10.268 C196.104001,10.3640005 196.225999,10.4519996 196.366,10.532 C196.506001,10.6120004 196.657999,10.6779997 196.822,10.73 C196.986001,10.7820003 197.163999,10.808 197.356,10.808 C197.660002,10.808 197.929999,10.7600005 198.166,10.664 C198.402001,10.5679995 198.603999,10.4320009 198.772,10.256 C198.940001,10.0799991 199.068,9.86800124 199.156,9.62 C199.244,9.37199876 199.288,9.10000148 199.288,8.804 C199.288,8.47599836 199.246,8.19800114 199.162,7.97 C199.078,7.74199886 198.962001,7.5580007 198.814,7.418 C198.665999,7.2779993 198.488001,7.17600032 198.28,7.112 C198.071999,7.04799968 197.844001,7.016 197.596,7.016 C197.508,7.016 197.414,7.02399992 197.314,7.04 C197.213999,7.05600008 197.128,7.07199992 197.056,7.088 C197.064,7.0479998 197.07,7.00600022 197.074,6.962 C197.078,6.91799978 197.08,6.8760002 197.08,6.836 C197.08,6.7959998 197.078,6.75400022 197.074,6.71 C197.07,6.66599978 197.064,6.6240002 197.056,6.584 C197.216001,6.61600016 197.395999,6.632 197.596,6.632 C197.876001,6.632 198.103999,6.57400058 198.28,6.458 C198.456001,6.34199942 198.593999,6.1940009 198.694,6.014 C198.794,5.8339991 198.862,5.63600108 198.898,5.42 C198.934,5.20399892 198.952,4.996001 198.952,4.796 C198.952,4.53999872 198.914,4.31800094 198.838,4.13 C198.762,3.94199906 198.664001,3.7880006 198.544,3.668 C198.423999,3.5479994 198.288001,3.46000028 198.136,3.404 C197.983999,3.34799972 197.828001,3.32 197.668,3.32 C197.331998,3.32 197.046001,3.41799902 196.81,3.614 C196.573999,3.81000098 196.412,4.03199876 196.324,4.28 L196.24,4.304 L195.964,3.656 Z" id="2013"></path>
                    <path d="M350.768,4.124 C351.024001,3.71599796 351.327998,3.41600096 351.68,3.224 C352.032002,3.03199904 352.459997,2.936 352.964,2.936 C353.276002,2.936 353.571999,2.9759996 353.852,3.056 C354.132001,3.1360004 354.373999,3.26399912 354.578,3.44 C354.782001,3.61600088 354.943999,3.83599868 355.064,4.1 C355.184001,4.36400132 355.244,4.68399812 355.244,5.06 C355.244,5.33200136 355.212,5.58599882 355.148,5.822 C355.084,6.05800118 354.990001,6.28799888 354.866,6.512 C354.741999,6.73600112 354.586001,6.96199886 354.398,7.19 C354.209999,7.41800114 353.988001,7.65999872 353.732,7.916 L353.204,8.444 C353.003999,8.644001 352.802001,8.84999894 352.598,9.062 C352.393999,9.27400106 352.200001,9.48399896 352.016,9.692 C351.831999,9.90000104 351.676001,10.0919991 351.548,10.268 L352.688,10.268 C353.264003,10.268 353.773998,10.2580001 354.218,10.238 C354.662002,10.2179999 355.051998,10.1960001 355.388,10.172 C355.348,10.3480009 355.328,10.4959994 355.328,10.616 C355.328,10.7280006 355.348,10.8639992 355.388,11.024 C354.955998,11.0079999 354.528002,11 354.104,11 L351.53,11 C351.101998,11 350.672002,11.0079999 350.24,11.024 L350.24,10.88 C350.800003,10.3279972 351.285998,9.8420021 351.698,9.422 C352.110002,9.0019979 352.459999,8.62400168 352.748,8.288 C353.036001,7.95199832 353.269999,7.64800136 353.45,7.376 C353.630001,7.10399864 353.771999,6.84600122 353.876,6.602 C353.980001,6.35799878 354.05,6.11800118 354.086,5.882 C354.122,5.64599882 354.14,5.39200136 354.14,5.12 C354.14,4.52799704 354.006001,4.09000142 353.738,3.806 C353.469999,3.52199858 353.156002,3.38 352.796,3.38 C352.539999,3.38 352.320001,3.42599954 352.136,3.518 C351.951999,3.61000046 351.800001,3.72199934 351.68,3.854 C351.559999,3.98600066 351.468,4.12799924 351.404,4.28 C351.34,4.43200076 351.296,4.5679994 351.272,4.688 L351.188,4.712 L350.768,4.124 Z M357.2,7.064 C357.2,6.49599716 357.248,5.9620025 357.344,5.462 C357.44,4.9619975 357.597999,4.52600186 357.818,4.154 C358.038001,3.78199814 358.327998,3.4860011 358.688,3.266 C359.048002,3.0459989 359.487997,2.936 360.008,2.936 C360.584003,2.936 361.053998,3.0459989 361.418,3.266 C361.782002,3.4860011 362.067999,3.78199814 362.276,4.154 C362.484001,4.52600186 362.626,4.9619975 362.702,5.462 C362.778,5.9620025 362.816,6.49599716 362.816,7.064 C362.816,7.61600276 362.760001,8.13999752 362.648,8.636 C362.535999,9.13200248 362.366001,9.56799812 362.138,9.944 C361.909999,10.3200019 361.620002,10.6159989 361.268,10.832 C360.915998,11.0480011 360.496002,11.156 360.008,11.156 C359.431997,11.156 358.962002,11.052001 358.598,10.844 C358.233998,10.635999 357.948001,10.3460019 357.74,9.974 C357.531999,9.60199814 357.39,9.1660025 357.314,8.666 C357.238,8.1659975 357.2,7.63200284 357.2,7.064 Z M358.184,7.064 C358.184,7.59200264 358.214,8.08399772 358.274,8.54 C358.334,8.99600228 358.435999,9.39199832 358.58,9.728 C358.724001,10.0640017 358.911999,10.327999 359.144,10.52 C359.376001,10.712001 359.663998,10.808 360.008,10.808 C360.352002,10.808 360.639999,10.712001 360.872,10.52 C361.104001,10.327999 361.291999,10.0640017 361.436,9.728 C361.580001,9.39199832 361.682,8.99600228 361.742,8.54 C361.802,8.08399772 361.832,7.59200264 361.832,7.064 C361.832,6.53599736 361.802,6.04400228 361.742,5.588 C361.682,5.13199772 361.580001,4.73600168 361.436,4.4 C361.291999,4.06399832 361.104001,3.80000096 360.872,3.608 C360.639999,3.41599904 360.352002,3.32 360.008,3.32 C359.663998,3.32 359.376001,3.40799912 359.144,3.584 C358.911999,3.76000088 358.724001,4.01199836 358.58,4.34 C358.435999,4.66800164 358.334,5.0619977 358.274,5.522 C358.214,5.9820023 358.184,6.49599716 358.184,7.064 Z M364.832,4.496 C364.744,4.3359992 364.624001,4.20800048 364.472,4.112 L364.472,4.028 C364.928002,3.84399908 365.393998,3.6420011 365.87,3.422 C366.346002,3.2019989 366.791998,2.98800104 367.208,2.78 L367.292,2.84 C367.26,3.36800264 367.236,3.88999742 367.22,4.406 C367.204,4.92200258 367.196,5.44399736 367.196,5.972 L367.196,7.976 C367.196,8.50400264 367.204,9.02199746 367.22,9.53 C367.236,10.0380025 367.26,10.5359976 367.292,11.024 C367.196,11.0079999 367.102,11 367.01,11 L366.446,11 C366.354,11 366.26,11.0079999 366.164,11.024 C366.204,10.5279975 366.23,10.0280025 366.242,9.524 C366.254,9.01999748 366.26,8.50400264 366.26,7.976 L366.26,3.704 L364.832,4.496 Z M373.988,4.112 C373.819999,4.34400116 373.608001,4.64199818 373.352,5.006 C373.095999,5.37000182 372.832001,5.74599806 372.56,6.134 C372.287999,6.52200194 372.030001,6.8959982 371.786,7.256 C371.541999,7.6160018 371.352001,7.91199884 371.216,8.144 L374.012,8.144 L374.012,4.112 L373.988,4.112 Z M370.268,8.636 C370.620002,8.13999752 370.985998,7.62400268 371.366,7.088 C371.746002,6.55199732 372.113998,6.03200252 372.47,5.528 C372.826002,5.02399748 373.153999,4.55400218 373.454,4.118 C373.754002,3.68199782 373.999999,3.31200152 374.192,3.008 C374.352001,3.0480002 374.487999,3.068 374.6,3.068 C374.712001,3.068 374.839999,3.0480002 374.984,3.008 C374.96,3.53600264 374.94,4.1299967 374.924,4.79 C374.908,5.4500033 374.9,6.12799652 374.9,6.824 L374.9,8.144 C375.132001,8.144 375.351999,8.1340001 375.56,8.114 C375.768001,8.0939999 375.939999,8.07200012 376.076,8.048 C376.036,8.2080008 376.016,8.33999948 376.016,8.444 C376.016,8.54800052 376.036,8.6799992 376.076,8.84 C375.939999,8.81599988 375.768001,8.79800006 375.56,8.786 C375.351999,8.77399994 375.132001,8.768 374.9,8.768 L374.9,9.272 C374.9,9.58400156 374.908,9.90599834 374.924,10.238 C374.94,10.5700017 374.956,10.831999 374.972,11.024 C374.811999,11.0079999 374.636001,11 374.444,11 C374.251999,11 374.076001,11.0079999 373.916,11.024 C373.932,10.815999 373.952,10.5480016 373.976,10.22 C374,9.89199836 374.012,9.57600152 374.012,9.272 L374.012,8.768 C373.827999,8.768 373.562002,8.76999998 373.214,8.774 C372.865998,8.77800002 372.502002,8.78399996 372.122,8.792 C371.741998,8.80000004 371.380002,8.80999994 371.036,8.822 C370.691998,8.83400006 370.436001,8.84399996 370.268,8.852 L370.268,8.636 Z" id="2014"></path>
                    <path d="M531.768,4.124 C532.024001,3.71599796 532.327998,3.41600096 532.68,3.224 C533.032002,3.03199904 533.459997,2.936 533.964,2.936 C534.276002,2.936 534.571999,2.9759996 534.852,3.056 C535.132001,3.1360004 535.373999,3.26399912 535.578,3.44 C535.782001,3.61600088 535.943999,3.83599868 536.064,4.1 C536.184001,4.36400132 536.244,4.68399812 536.244,5.06 C536.244,5.33200136 536.212,5.58599882 536.148,5.822 C536.084,6.05800118 535.990001,6.28799888 535.866,6.512 C535.741999,6.73600112 535.586001,6.96199886 535.398,7.19 C535.209999,7.41800114 534.988001,7.65999872 534.732,7.916 L534.204,8.444 C534.003999,8.644001 533.802001,8.84999894 533.598,9.062 C533.393999,9.27400106 533.200001,9.48399896 533.016,9.692 C532.831999,9.90000104 532.676001,10.0919991 532.548,10.268 L533.688,10.268 C534.264003,10.268 534.773998,10.2580001 535.218,10.238 C535.662002,10.2179999 536.051998,10.1960001 536.388,10.172 C536.348,10.3480009 536.328,10.4959994 536.328,10.616 C536.328,10.7280006 536.348,10.8639992 536.388,11.024 C535.955998,11.0079999 535.528002,11 535.104,11 L532.53,11 C532.101998,11 531.672002,11.0079999 531.24,11.024 L531.24,10.88 C531.800003,10.3279972 532.285998,9.8420021 532.698,9.422 C533.110002,9.0019979 533.459999,8.62400168 533.748,8.288 C534.036001,7.95199832 534.269999,7.64800136 534.45,7.376 C534.630001,7.10399864 534.771999,6.84600122 534.876,6.602 C534.980001,6.35799878 535.05,6.11800118 535.086,5.882 C535.122,5.64599882 535.14,5.39200136 535.14,5.12 C535.14,4.52799704 535.006001,4.09000142 534.738,3.806 C534.469999,3.52199858 534.156002,3.38 533.796,3.38 C533.539999,3.38 533.320001,3.42599954 533.136,3.518 C532.951999,3.61000046 532.800001,3.72199934 532.68,3.854 C532.559999,3.98600066 532.468,4.12799924 532.404,4.28 C532.34,4.43200076 532.296,4.5679994 532.272,4.688 L532.188,4.712 L531.768,4.124 Z M538.2,7.064 C538.2,6.49599716 538.248,5.9620025 538.344,5.462 C538.44,4.9619975 538.597999,4.52600186 538.818,4.154 C539.038001,3.78199814 539.327998,3.4860011 539.688,3.266 C540.048002,3.0459989 540.487997,2.936 541.008,2.936 C541.584003,2.936 542.053998,3.0459989 542.418,3.266 C542.782002,3.4860011 543.067999,3.78199814 543.276,4.154 C543.484001,4.52600186 543.626,4.9619975 543.702,5.462 C543.778,5.9620025 543.816,6.49599716 543.816,7.064 C543.816,7.61600276 543.760001,8.13999752 543.648,8.636 C543.535999,9.13200248 543.366001,9.56799812 543.138,9.944 C542.909999,10.3200019 542.620002,10.6159989 542.268,10.832 C541.915998,11.0480011 541.496002,11.156 541.008,11.156 C540.431997,11.156 539.962002,11.052001 539.598,10.844 C539.233998,10.635999 538.948001,10.3460019 538.74,9.974 C538.531999,9.60199814 538.39,9.1660025 538.314,8.666 C538.238,8.1659975 538.2,7.63200284 538.2,7.064 Z M539.184,7.064 C539.184,7.59200264 539.214,8.08399772 539.274,8.54 C539.334,8.99600228 539.435999,9.39199832 539.58,9.728 C539.724001,10.0640017 539.911999,10.327999 540.144,10.52 C540.376001,10.712001 540.663998,10.808 541.008,10.808 C541.352002,10.808 541.639999,10.712001 541.872,10.52 C542.104001,10.327999 542.291999,10.0640017 542.436,9.728 C542.580001,9.39199832 542.682,8.99600228 542.742,8.54 C542.802,8.08399772 542.832,7.59200264 542.832,7.064 C542.832,6.53599736 542.802,6.04400228 542.742,5.588 C542.682,5.13199772 542.580001,4.73600168 542.436,4.4 C542.291999,4.06399832 542.104001,3.80000096 541.872,3.608 C541.639999,3.41599904 541.352002,3.32 541.008,3.32 C540.663998,3.32 540.376001,3.40799912 540.144,3.584 C539.911999,3.76000088 539.724001,4.01199836 539.58,4.34 C539.435999,4.66800164 539.334,5.0619977 539.274,5.522 C539.214,5.9820023 539.184,6.49599716 539.184,7.064 Z M545.832,4.496 C545.744,4.3359992 545.624001,4.20800048 545.472,4.112 L545.472,4.028 C545.928002,3.84399908 546.393998,3.6420011 546.87,3.422 C547.346002,3.2019989 547.791998,2.98800104 548.208,2.78 L548.292,2.84 C548.26,3.36800264 548.236,3.88999742 548.22,4.406 C548.204,4.92200258 548.196,5.44399736 548.196,5.972 L548.196,7.976 C548.196,8.50400264 548.204,9.02199746 548.22,9.53 C548.236,10.0380025 548.26,10.5359976 548.292,11.024 C548.196,11.0079999 548.102,11 548.01,11 L547.446,11 C547.354,11 547.26,11.0079999 547.164,11.024 C547.204,10.5279975 547.23,10.0280025 547.242,9.524 C547.254,9.01999748 547.26,8.50400264 547.26,7.976 L547.26,3.704 L545.832,4.496 Z M552.912,6.512 C553.072001,6.42399956 553.245999,6.3500003 553.434,6.29 C553.622001,6.2299997 553.895998,6.2 554.256,6.2 C554.608002,6.2 554.925999,6.2599994 555.21,6.38 C555.494001,6.5000006 555.735999,6.66399896 555.936,6.872 C556.136001,7.08000104 556.289999,7.31999864 556.398,7.592 C556.506001,7.86400136 556.56,8.15199848 556.56,8.456 C556.56,8.83200188 556.488001,9.18599834 556.344,9.518 C556.199999,9.85000166 555.996001,10.1379988 555.732,10.382 C555.467999,10.6260012 555.154002,10.8159993 554.79,10.952 C554.425998,11.0880007 554.020002,11.156 553.572,11.156 C553.211998,11.156 552.866002,11.1260003 552.534,11.066 C552.201998,11.0059997 551.908001,10.8880009 551.652,10.712 L551.652,10.616 C551.692,10.5119995 551.728,10.3940007 551.76,10.262 C551.792,10.1299993 551.816,10.0160005 551.832,9.92 L551.916,9.92 C551.988,10.0640007 552.085999,10.1919994 552.21,10.304 C552.334001,10.4160006 552.473999,10.5099996 552.63,10.586 C552.786001,10.6620004 552.949999,10.7179998 553.122,10.754 C553.294001,10.7900002 553.459999,10.808 553.62,10.808 C553.860001,10.808 554.089999,10.7640004 554.31,10.676 C554.530001,10.5879996 554.723999,10.4520009 554.892,10.268 C555.060001,10.0839991 555.195999,9.8520014 555.3,9.572 C555.404001,9.2919986 555.456,8.96400188 555.456,8.588 C555.456,8.25199832 555.408,7.9640012 555.312,7.724 C555.216,7.4839988 555.090001,7.28800076 554.934,7.136 C554.777999,6.98399924 554.600001,6.87400034 554.4,6.806 C554.199999,6.73799966 553.992001,6.704 553.776,6.704 C553.439998,6.704 553.168001,6.75799946 552.96,6.866 C552.751999,6.97400054 552.612,7.05199976 552.54,7.1 L552.408,7.016 C552.464,6.70399844 552.498,6.37400174 552.51,6.026 C552.522,5.67799826 552.528,5.33200172 552.528,4.988 C552.528,4.65199832 552.522,4.30600178 552.51,3.95 C552.498,3.59399822 552.472,3.28000136 552.432,3.008 L552.54,2.936 C552.676001,2.96000012 552.899998,2.98399988 553.212,3.008 C553.564002,3.03200012 554.051997,3.044 554.676,3.044 C555.060002,3.044 555.399999,3.04200002 555.696,3.038 C555.992001,3.03399998 556.211999,3.02800004 556.356,3.02 L556.416,3.068 C556.384,3.17200052 556.362,3.28199942 556.35,3.398 C556.338,3.51400058 556.332,3.62799944 556.332,3.74 C556.332,3.85200056 556.336,3.91999988 556.344,3.944 C556.167999,3.91199984 555.934001,3.8860001 555.642,3.866 C555.349999,3.8459999 555.044002,3.83000006 554.724,3.818 C554.403998,3.80599994 554.096001,3.79800002 553.8,3.794 C553.503999,3.78999998 553.264001,3.788 553.08,3.788 L552.912,6.512 Z" id="2015"></path>
                    <path d="M699.768,4.124 C700.024001,3.71599796 700.327998,3.41600096 700.68,3.224 C701.032002,3.03199904 701.459997,2.936 701.964,2.936 C702.276002,2.936 702.571999,2.9759996 702.852,3.056 C703.132001,3.1360004 703.373999,3.26399912 703.578,3.44 C703.782001,3.61600088 703.943999,3.83599868 704.064,4.1 C704.184001,4.36400132 704.244,4.68399812 704.244,5.06 C704.244,5.33200136 704.212,5.58599882 704.148,5.822 C704.084,6.05800118 703.990001,6.28799888 703.866,6.512 C703.741999,6.73600112 703.586001,6.96199886 703.398,7.19 C703.209999,7.41800114 702.988001,7.65999872 702.732,7.916 L702.204,8.444 C702.003999,8.644001 701.802001,8.84999894 701.598,9.062 C701.393999,9.27400106 701.200001,9.48399896 701.016,9.692 C700.831999,9.90000104 700.676001,10.0919991 700.548,10.268 L701.688,10.268 C702.264003,10.268 702.773998,10.2580001 703.218,10.238 C703.662002,10.2179999 704.051998,10.1960001 704.388,10.172 C704.348,10.3480009 704.328,10.4959994 704.328,10.616 C704.328,10.7280006 704.348,10.8639992 704.388,11.024 C703.955998,11.0079999 703.528002,11 703.104,11 L700.53,11 C700.101998,11 699.672002,11.0079999 699.24,11.024 L699.24,10.88 C699.800003,10.3279972 700.285998,9.8420021 700.698,9.422 C701.110002,9.0019979 701.459999,8.62400168 701.748,8.288 C702.036001,7.95199832 702.269999,7.64800136 702.45,7.376 C702.630001,7.10399864 702.771999,6.84600122 702.876,6.602 C702.980001,6.35799878 703.05,6.11800118 703.086,5.882 C703.122,5.64599882 703.14,5.39200136 703.14,5.12 C703.14,4.52799704 703.006001,4.09000142 702.738,3.806 C702.469999,3.52199858 702.156002,3.38 701.796,3.38 C701.539999,3.38 701.320001,3.42599954 701.136,3.518 C700.951999,3.61000046 700.800001,3.72199934 700.68,3.854 C700.559999,3.98600066 700.468,4.12799924 700.404,4.28 C700.34,4.43200076 700.296,4.5679994 700.272,4.688 L700.188,4.712 L699.768,4.124 Z M706.2,7.064 C706.2,6.49599716 706.248,5.9620025 706.344,5.462 C706.44,4.9619975 706.597999,4.52600186 706.818,4.154 C707.038001,3.78199814 707.327998,3.4860011 707.688,3.266 C708.048002,3.0459989 708.487997,2.936 709.008,2.936 C709.584003,2.936 710.053998,3.0459989 710.418,3.266 C710.782002,3.4860011 711.067999,3.78199814 711.276,4.154 C711.484001,4.52600186 711.626,4.9619975 711.702,5.462 C711.778,5.9620025 711.816,6.49599716 711.816,7.064 C711.816,7.61600276 711.760001,8.13999752 711.648,8.636 C711.535999,9.13200248 711.366001,9.56799812 711.138,9.944 C710.909999,10.3200019 710.620002,10.6159989 710.268,10.832 C709.915998,11.0480011 709.496002,11.156 709.008,11.156 C708.431997,11.156 707.962002,11.052001 707.598,10.844 C707.233998,10.635999 706.948001,10.3460019 706.74,9.974 C706.531999,9.60199814 706.39,9.1660025 706.314,8.666 C706.238,8.1659975 706.2,7.63200284 706.2,7.064 Z M707.184,7.064 C707.184,7.59200264 707.214,8.08399772 707.274,8.54 C707.334,8.99600228 707.435999,9.39199832 707.58,9.728 C707.724001,10.0640017 707.911999,10.327999 708.144,10.52 C708.376001,10.712001 708.663998,10.808 709.008,10.808 C709.352002,10.808 709.639999,10.712001 709.872,10.52 C710.104001,10.327999 710.291999,10.0640017 710.436,9.728 C710.580001,9.39199832 710.682,8.99600228 710.742,8.54 C710.802,8.08399772 710.832,7.59200264 710.832,7.064 C710.832,6.53599736 710.802,6.04400228 710.742,5.588 C710.682,5.13199772 710.580001,4.73600168 710.436,4.4 C710.291999,4.06399832 710.104001,3.80000096 709.872,3.608 C709.639999,3.41599904 709.352002,3.32 709.008,3.32 C708.663998,3.32 708.376001,3.40799912 708.144,3.584 C707.911999,3.76000088 707.724001,4.01199836 707.58,4.34 C707.435999,4.66800164 707.334,5.0619977 707.274,5.522 C707.214,5.9820023 707.184,6.49599716 707.184,7.064 Z M713.832,4.496 C713.744,4.3359992 713.624001,4.20800048 713.472,4.112 L713.472,4.028 C713.928002,3.84399908 714.393998,3.6420011 714.87,3.422 C715.346002,3.2019989 715.791998,2.98800104 716.208,2.78 L716.292,2.84 C716.26,3.36800264 716.236,3.88999742 716.22,4.406 C716.204,4.92200258 716.196,5.44399736 716.196,5.972 L716.196,7.976 C716.196,8.50400264 716.204,9.02199746 716.22,9.53 C716.236,10.0380025 716.26,10.5359976 716.292,11.024 C716.196,11.0079999 716.102,11 716.01,11 L715.446,11 C715.354,11 715.26,11.0079999 715.164,11.024 C715.204,10.5279975 715.23,10.0280025 715.242,9.524 C715.254,9.01999748 715.26,8.50400264 715.26,7.976 L715.26,3.704 L713.832,4.496 Z M724.02,8.732 C724.02,8.12399696 723.894001,7.62800192 723.642,7.244 C723.389999,6.85999808 723.008003,6.668 722.496,6.668 C722.263999,6.668 722.046001,6.7179995 721.842,6.818 C721.637999,6.9180005 721.462001,7.05999908 721.314,7.244 C721.165999,7.42800092 721.048,7.64599874 720.96,7.898 C720.872,8.15000126 720.828,8.42799848 720.828,8.732 C720.828,9.03600152 720.868,9.31599872 720.948,9.572 C721.028,9.82800128 721.139999,10.0479991 721.284,10.232 C721.428001,10.4160009 721.597999,10.5579995 721.794,10.658 C721.990001,10.7580005 722.199999,10.808 722.424,10.808 C722.680001,10.808 722.905999,10.7580005 723.102,10.658 C723.298001,10.5579995 723.463999,10.4160009 723.6,10.232 C723.736001,10.0479991 723.84,9.82800128 723.912,9.572 C723.984,9.31599872 724.02,9.03600152 724.02,8.732 Z M723.96,3.404 C723.872,3.37999988 723.78,3.36000008 723.684,3.344 C723.588,3.32799992 723.472001,3.32 723.336,3.32 C723.023998,3.32 722.744001,3.38599934 722.496,3.518 C722.247999,3.65000066 722.028001,3.8259989 721.836,4.046 C721.643999,4.2660011 721.480001,4.51799858 721.344,4.802 C721.207999,5.08600142 721.096,5.37999848 721.008,5.684 C720.92,5.98800152 720.856,6.28599854 720.816,6.578 C720.776,6.87000146 720.756,7.13999876 720.756,7.388 L720.78,7.388 C720.86,7.25199932 720.955999,7.11600068 721.068,6.98 C721.180001,6.84399932 721.313999,6.72000056 721.47,6.608 C721.626001,6.49599944 721.805999,6.40400036 722.01,6.332 C722.214001,6.25999964 722.447999,6.224 722.712,6.224 C722.920001,6.224 723.159999,6.25599968 723.432,6.32 C723.704001,6.38400032 723.961999,6.49999916 724.206,6.668 C724.450001,6.83600084 724.655999,7.06599854 724.824,7.358 C724.992001,7.65000146 725.076,8.02399772 725.076,8.48 C725.076,8.880002 725.014001,9.24599834 724.89,9.578 C724.765999,9.91000166 724.588001,10.1939988 724.356,10.43 C724.123999,10.6660012 723.844002,10.8459994 723.516,10.97 C723.187998,11.0940006 722.820002,11.156 722.412,11.156 C722.067998,11.156 721.736002,11.0980006 721.416,10.982 C721.095998,10.8659994 720.814001,10.6720014 720.57,10.4 C720.325999,10.1279986 720.132001,9.77400218 719.988,9.338 C719.843999,8.90199782 719.772,8.36800316 719.772,7.736 C719.772,7.07199668 719.849999,6.44600294 720.006,5.858 C720.162001,5.26999706 720.389999,4.75800218 720.69,4.322 C720.990001,3.88599782 721.361998,3.54400124 721.806,3.296 C722.250002,3.04799876 722.759997,2.92799996 723.336,2.936 C723.472001,2.936 723.574,2.93799998 723.642,2.942 C723.71,2.94600002 723.776,2.95599992 723.84,2.972 L724.02,3.356 L723.96,3.404 Z" id="2016"></path>
                </g>
            </g>
        </g>
    </g>
</svg>