<?xml version="1.0" encoding="UTF-8"?>
<svg width="453px" height="52px" viewBox="0 0 453 52" version="1.1" xmlns="http://www.w3.org/2000/svg" xmlns:xlink="http://www.w3.org/1999/xlink">
    <!-- Generator: Sketch 42 (36781) - http://www.bohemiancoding.com/sketch -->
    <title>Puran Zhang Copy</title>
    <desc>Created with Sketch.</desc>
    <defs></defs>
    <g id="Page-1" stroke="none" stroke-width="1" fill="none" fill-rule="evenodd">
        <path d="M37.888,20.264 C37.888,23.5760166 37.3120058,26.3959884 36.16,28.724 C35.0079942,31.0520116 33.43601,32.9359928 31.444,34.376 C29.45199,35.8160072 27.1240133,36.8719966 24.46,37.544 C21.7959867,38.2160034 18.9280154,38.552 15.856,38.552 L15.856,50 L0.52,50 L0.52,1.976 L15.856,1.976 C18.9280154,1.976 21.7959867,2.31199664 24.46,2.984 C27.1240133,3.65600336 29.45199,4.7119928 31.444,6.152 C33.43601,7.5920072 35.0079942,9.47598836 36.16,11.804 C37.3120058,14.1320116 37.888,16.9519834 37.888,20.264 Z M30.904,20.264 C30.904,18.1039892 30.5320037,16.2320079 29.788,14.648 C29.0439963,13.0639921 28.0000067,11.768005 26.656,10.76 C25.3119933,9.75199496 23.7160092,8.99600252 21.868,8.492 C20.0199908,7.98799748 18.0160108,7.736 15.856,7.736 L7.72,7.736 L7.72,44.24 L9.592,44.24 L9.592,32.792 L15.856,32.792 C18.0160108,32.792 20.0199908,32.5400025 21.868,32.036 C23.7160092,31.5319975 25.3119933,30.776005 26.656,29.768 C28.0000067,28.759995 29.0439963,27.4640079 29.788,25.88 C30.5320037,24.2959921 30.904,22.4240108 30.904,20.264 Z M28.888,20.264 C28.888,22.3280103 28.5280036,24.055993 27.808,25.448 C27.0879964,26.840007 26.128006,27.9439959 24.928,28.76 C23.727994,29.5760041 22.3480078,30.1639982 20.788,30.524 C19.2279922,30.8840018 17.5840086,31.064 15.856,31.064 L9.592,31.064 L9.592,9.464 L15.856,9.464 C17.5840086,9.464 19.2279922,9.6439982 20.788,10.004 C22.3480078,10.3640018 23.727994,10.9519959 24.928,11.768 C26.128006,12.5840041 27.0879964,13.687993 27.808,15.08 C28.5280036,16.472007 28.888,18.1999897 28.888,20.264 Z M15.856,25.592 L16.504,25.592 C18.5200101,25.592 19.9719956,25.1240047 20.86,24.188 C21.7480044,23.2519953 22.192,21.9440084 22.192,20.264 C22.192,18.5839916 21.7480044,17.2760047 20.86,16.34 C19.9719956,15.4039953 18.5200101,14.936 16.504,14.936 L15.856,14.936 L15.856,25.592 Z M61.1584,51.224 C58.1343849,51.224 55.3984122,50.8400038 52.9504,50.072 C50.5023878,49.3039962 48.4144086,48.1520077 46.6864,46.616 C44.9583914,45.0799923 43.6264047,43.1360118 42.6904,40.784 C41.7543953,38.4319882 41.2864,35.6720158 41.2864,32.504 L41.2864,1.976 L56.6224,1.976 L56.6224,31.856 C56.6224,33.5360084 56.9703965,34.8199956 57.6664,35.708 C58.3624035,36.5960044 59.5263918,37.04 61.1584,37.04 C62.7904082,37.04 63.9543965,36.5960044 64.6504,35.708 C65.3464035,34.8199956 65.6944,33.5360084 65.6944,31.856 L65.6944,1.976 L81.1024,1.976 L81.1024,32.504 C81.1024,35.6720158 80.6344047,38.4319882 79.6984,40.784 C78.7623953,43.1360118 77.4184088,45.0799923 75.6664,46.616 C73.9143912,48.1520077 71.8144122,49.3039962 69.3664,50.072 C66.9183878,50.8400038 64.1824151,51.224 61.1584,51.224 Z M61.1584,42.584 C53.958364,42.584 50.3584,39.0560353 50.3584,32 L50.3584,7.736 L48.4864,7.736 L48.4864,32 C48.4864,36.0320202 49.5783891,39.1159893 51.7624,41.252 C53.9464109,43.3880107 57.0783796,44.456 61.1584,44.456 C65.2384204,44.456 68.382389,43.3880107 70.5904,41.252 C72.798411,39.1159893 73.9024,36.0320202 73.9024,32 L73.9024,7.736 L71.9584,7.736 L71.9584,32 C71.9584,39.0560353 68.358436,42.584 61.1584,42.584 Z M100.9168,33.296 C102.788809,33.296 104.612791,33.1040019 106.3888,32.72 L113.2288,44.24 L115.4608,44.24 L108.2608,32.144 C110.852813,31.2319954 112.916792,29.8280095 114.4528,27.932 C115.988808,26.0359905 116.7568,23.5760151 116.7568,20.552 C116.7568,18.4399894 116.348804,16.5920079 115.5328,15.008 C114.716796,13.4239921 113.600807,12.0920054 112.1848,11.012 C110.768793,9.9319946 109.10081,9.11600276 107.1808,8.564 C105.26079,8.01199724 103.172811,7.736 100.9168,7.736 L93.1408,7.736 L93.1408,44.24 L95.0128,44.24 L95.0128,33.296 L100.9168,33.296 Z M95.0128,31.568 L95.0128,9.464 L100.9168,9.464 C105.284822,9.464 108.704788,10.4239904 111.1768,12.344 C113.648812,14.2640096 114.8848,16.9999822 114.8848,20.552 C114.8848,24.1040178 113.648812,26.8279905 111.1768,28.724 C108.704788,30.6200095 105.284822,31.568 100.9168,31.568 L95.0128,31.568 Z M85.9408,1.976 L102.5008,1.976 C105.572815,1.976 108.416787,2.38399592 111.0328,3.2 C113.648813,4.01600408 115.91679,5.21599208 117.8368,6.8 C119.75681,8.38400792 121.256795,10.3399884 122.3368,12.668 C123.416805,14.9960116 123.9568,17.6719849 123.9568,20.696 C123.9568,23.096012 123.620803,25.1359916 122.9488,26.816 C122.276797,28.4960084 121.532804,29.8879945 120.7168,30.992 C119.756795,32.2400062 118.676806,33.2959957 117.4768,34.16 L126.4768,50 L108.4768,50 L101.2768,37.832 L101.2768,50 L85.9408,50 L85.9408,1.976 Z M101.2768,25.592 L102.0688,25.592 C103.892809,25.592 105.440794,25.1840041 106.7128,24.368 C107.984806,23.5519959 108.6208,22.1840096 108.6208,20.264 C108.6208,18.3439904 107.984806,16.9760041 106.7128,16.16 C105.440794,15.3439959 103.892809,14.936 102.0688,14.936 L101.2768,14.936 L101.2768,25.592 Z M142.1872,1.976 L153.7072,1.976 L171.9232,50 L156.8032,50 L155.2192,45.68 L140.6752,45.68 L139.0912,50 L123.9712,50 L142.1872,1.976 Z M151.1872,35.096 L147.9472,26.672 L144.7072,35.096 L151.1872,35.096 Z M134.6992,44.24 L136.0672,40.64 L159.8272,40.64 L161.1952,44.24 L163.2112,44.24 L149.3152,7.736 L146.5792,7.736 L132.6832,44.24 L134.6992,44.24 Z M147.9472,9.464 L159.1792,38.912 L136.7152,38.912 L147.9472,9.464 Z M173.0176,1.976 L185.6176,1.976 L198.8656,20.48 L198.8656,1.976 L213.9136,1.976 L213.9136,50 L201.2416,50 L188.0656,31.568 L188.0656,50 L173.0176,50 L173.0176,1.976 Z M181.5856,44.24 L181.5856,10.976 L205.3456,44.24 L207.2176,44.24 L207.2176,7.736 L205.3456,7.736 L205.3456,41 L181.5856,7.736 L179.7136,7.736 L179.7136,44.24 L181.5856,44.24 Z M246.1264,14.576 L232.8784,14.576 L237.7744,1.976 L268.5184,1.976 L251.8144,37.4 L267.5824,37.4 L262.7584,50 L229.4224,50 L246.1264,14.576 Z M259.0144,44.24 L259.7344,42.512 L242.2384,42.512 L258.6544,7.736 L241.5184,7.736 L240.8704,9.464 L255.7024,9.464 L239.2864,44.24 L259.0144,44.24 Z M270.6928,1.976 L286.0288,1.976 L286.0288,18.32 L294.5968,18.32 L294.5968,1.976 L310.0048,1.976 L310.0048,50 L294.5968,50 L294.5968,32.216 L286.0288,32.216 L286.0288,50 L270.6928,50 L270.6928,1.976 Z M279.7648,44.24 L279.7648,26.024 L300.9328,26.024 L300.9328,44.24 L302.8048,44.24 L302.8048,7.736 L300.9328,7.736 L300.9328,24.296 L279.7648,24.296 L279.7648,7.736 L277.8928,7.736 L277.8928,44.24 L279.7648,44.24 Z M329.3152,1.976 L340.8352,1.976 L359.0512,50 L343.9312,50 L342.3472,45.68 L327.8032,45.68 L326.2192,50 L311.0992,50 L329.3152,1.976 Z M338.3152,35.096 L335.0752,26.672 L331.8352,35.096 L338.3152,35.096 Z M321.8272,44.24 L323.1952,40.64 L346.9552,40.64 L348.3232,44.24 L350.3392,44.24 L336.4432,7.736 L333.7072,7.736 L319.8112,44.24 L321.8272,44.24 Z M335.0752,9.464 L346.3072,38.912 L323.8432,38.912 L335.0752,9.464 Z M360.1456,1.976 L372.7456,1.976 L385.9936,20.48 L385.9936,1.976 L401.0416,1.976 L401.0416,50 L388.3696,50 L375.1936,31.568 L375.1936,50 L360.1456,50 L360.1456,1.976 Z M368.7136,44.24 L368.7136,10.976 L392.4736,44.24 L394.3456,44.24 L394.3456,7.736 L392.4736,7.736 L392.4736,41 L368.7136,7.736 L366.8416,7.736 L366.8416,44.24 L368.7136,44.24 Z M436.696,18.32 C435.831996,17.5519962 434.752006,16.964002 433.456,16.556 C432.159994,16.147998 430.888006,15.944 429.64,15.944 C428.247993,15.944 426.976006,16.1959975 425.824,16.7 C424.671994,17.2040025 423.676004,17.8999956 422.836,18.788 C421.995996,19.6760044 421.336002,20.7439938 420.856,21.992 C420.375998,23.2400062 420.136,24.5839928 420.136,26.024 C420.136,27.4640072 420.399997,28.8079938 420.928,30.056 C421.456003,31.3040062 422.175995,32.3719956 423.088,33.26 C424.000005,34.1480044 425.067994,34.8439975 426.292,35.348 C427.516006,35.8520025 428.823993,36.104 430.216,36.104 C431.848008,36.104 433.335993,35.7560035 434.68,35.06 C436.024007,34.3639965 437.175995,33.416006 438.136,32.216 L433.816,32.216 L433.816,22.136 L452.32,22.136 L452.32,38.12 C451.215994,40.0880098 449.896008,41.875992 448.36,43.484 C446.823992,45.092008 445.108009,46.4719942 443.212,47.624 C441.315991,48.7760058 439.264011,49.6639969 437.056,50.288 C434.847989,50.9120031 432.568012,51.224 430.216,51.224 C426.759983,51.224 423.496015,50.5760065 420.424,49.28 C417.351985,47.9839935 414.676011,46.2080113 412.396,43.952 C410.115989,41.6959887 408.316007,39.0320154 406.996,35.96 C405.675993,32.8879846 405.016,29.5760178 405.016,26.024 C405.016,22.5679827 405.639994,19.3040154 406.888,16.232 C408.136006,13.1599846 409.851989,10.4840114 412.036,8.204 C414.220011,5.9239886 416.811985,4.1240066 419.812,2.804 C422.812015,1.4839934 426.039983,0.824 429.496,0.824 C432.184013,0.824 434.51199,1.08799736 436.48,1.616 C438.44801,2.14400264 440.103993,2.74399664 441.448,3.416 C443.032008,4.18400384 444.351995,5.02399544 445.408,5.936 L436.696,18.32 Z M437.416,9.032 C436.791997,8.74399856 436.096004,8.50400096 435.328,8.312 C434.655997,8.11999904 433.864005,7.95200072 432.952,7.808 C432.039995,7.66399928 431.032006,7.592 429.928,7.592 C427.383987,7.592 425.008011,8.04799544 422.8,8.96 C420.591989,9.87200456 418.672008,11.131992 417.04,12.74 C415.407992,14.348008 414.124005,16.2799887 413.188,18.536 C412.251995,20.7920113 411.784,23.2879863 411.784,26.024 C411.784,28.7600137 412.263995,31.2559887 413.224,33.512 C414.184005,35.7680113 415.503992,37.699992 417.184,39.308 C418.864008,40.916008 420.819989,42.1759954 423.052,43.088 C425.284011,44.0000046 427.671987,44.456 430.216,44.456 C433.528017,44.456 436.527987,43.6760078 439.216,42.116 C441.904013,40.5559922 444.087992,38.480013 445.768,35.888 L445.768,26.456 L438.136,26.456 L438.136,28.184 L443.896,28.184 L443.896,35.384 C442.407993,37.592011 440.476012,39.3439935 438.1,40.64 C435.723988,41.9360065 433.096014,42.584 430.216,42.584 C427.911988,42.584 425.76401,42.188004 423.772,41.396 C421.77999,40.603996 420.028008,39.4760073 418.516,38.012 C417.003992,36.5479927 415.816004,34.7960102 414.952,32.756 C414.087996,30.7159898 413.656,28.4720122 413.656,26.024 C413.656,23.5759878 414.075996,21.3320102 414.916,19.292 C415.756004,17.2519898 416.907993,15.5000073 418.372,14.036 C419.836007,12.5719927 421.55199,11.444004 423.52,10.652 C425.48801,9.85999604 427.623988,9.464 429.928,9.464 C430.792004,9.464 431.607996,9.53599928 432.376,9.68 C433.144004,9.82400072 433.815997,9.96799928 434.392,10.112 C435.064003,10.304001 435.687997,10.495999 436.264,10.688 L437.416,9.032 Z" id="Puran-Zhang-Copy" fill="#3D8FFF"></path>
    </g>
</svg>