<?xml version="1.0" encoding="UTF-8"?>
<svg width="1000px" height="216px" viewBox="0 0 1000 216" version="1.1" xmlns="http://www.w3.org/2000/svg" xmlns:xlink="http://www.w3.org/1999/xlink">
    <!-- Generator: Sketch 44 (41411) - http://www.bohemiancoding.com/sketch -->
    <title>rabbling</title>
    <desc>Created with Sketch.</desc>
    <defs>
        <rect id="path-1" x="0" y="0" width="1000" height="216"></rect>
    </defs>
    <g id="Page-1" stroke="none" stroke-width="1" fill="none" fill-rule="evenodd">
        <g id="rabbling">
            <mask id="mask-2" fill="white">
                <use xlink:href="#path-1"></use>
            </mask>
            <use id="Rectangle" fill="#2D2D2D" opacity="0.799139493" xlink:href="#path-1"></use>
            <g id="stage1" mask="url(#mask-2)" fill-rule="nonzero" fill="#FFFFFF">
                <g transform="translate(-34.000000, 58.000000)" id="Shape">
                    <path d="M189.871111,42.4644444 C187.463333,40.9322222 184.18,38.7433333 181.553333,35.8977778 C179.802222,33.9277778 178.051111,31.9577778 176.518889,30.4255556 C169.952222,23.2022222 166.231111,18.8244444 158.351111,18.3866667 C151.346667,18.1677778 146.75,21.0133333 143.247778,24.0777778 C140.621111,17.2922222 135.586667,10.9444444 126.174444,9.85 C127.05,7.88 127.05,4.59666667 123.547778,0 C123.547778,3.88824775e-15 123.11,3.88824775e-15 122.891111,3.88824775e-15 C122.672222,3.88824775e-15 122.453333,0.437777778 122.453333,0.656666667 C122.453333,0.656666667 122.453333,5.25333333 120.483333,7.22333333 C119.826667,7.88 118.951111,8.31777778 117.856667,8.09888889 C117.418889,8.09888889 116.981111,8.09888889 116.543333,8.09888889 C114.573333,8.09888889 113.041111,8.75555556 111.946667,9.85 C111.29,10.5066667 111.071111,11.1633333 111.071111,12.0388889 C105.598889,14.2277778 101.658889,17.5111111 99.47,22.3266667 C95.53,30.8633333 98.5944444,40.4944444 99.2511111,42.2455556 C96.8433333,42.9022222 95.3111111,45.5288889 95.53,48.3744444 C95.9677778,51.6577778 98.5944444,53.8466667 101.221111,53.6277778 C101.44,53.6277778 101.877778,53.6277778 102.096667,53.4088889 C102.534444,54.2844444 103.191111,55.16 103.847778,55.8166667 L56.13,67.1988889 C55.6922222,66.5422222 55.0355556,65.8855556 54.5977778,65.4477778 C48.0311111,58.2244444 44.31,53.8466667 36.43,53.4088889 C28.1122222,52.9711111 23.2966667,57.3488889 19.3566667,60.8511111 C18.0433333,61.9455556 16.9488889,63.04 15.8544444,63.6966667 C13.0088889,65.6666667 8.85,67.4177778 6.00444444,68.5122222 C2.50222222,69.8255556 0.0944444444,73.3277778 0.0944444444,77.0488889 L0.0944444444,175.111111 C0.0944444444,177.3 1.40777778,179.051111 3.37777778,179.926667 C4.03444444,180.145556 4.47222222,180.145556 5.12888889,180.145556 C7.97444444,180.145556 10.1633333,177.956667 10.1633333,175.111111 L10.1633333,167.012222 L62.2588889,182.334444 L62.2588889,191.527778 C62.2588889,193.716667 63.5722222,195.686667 65.7611111,196.562222 C66.4177778,196.781111 67.0744444,197 67.7311111,197 C67.7311111,197 67.7311111,197 67.7311111,197 C69.0444444,197 70.5766667,196.343333 71.4522222,195.467778 C72.5466667,194.373333 72.9844444,193.06 72.9844444,191.527778 L72.9844444,184.961111 L183.961111,147.093333 L183.961111,156.724444 C183.961111,158.913333 185.274444,160.883333 187.463333,161.758889 C188.12,161.977778 188.776667,162.196667 189.433333,162.196667 C190.527778,162.196667 191.622222,161.977778 192.497778,161.321111 C194.03,160.226667 194.905556,158.694444 194.905556,156.943333 L194.905556,51.8766667 C194.905556,47.9366667 192.935556,44.4344444 189.871111,42.4644444 Z M112.822222,10.9444444 C113.697778,10.0688889 115.011111,9.63111111 116.543333,9.63111111 C116.981111,9.63111111 117.2,9.63111111 117.637778,9.63111111 C119.17,9.85 120.483333,9.41222222 121.358889,8.31777778 C122.891111,6.78555556 123.328889,4.37777778 123.547778,2.62666667 C125.298889,5.47222222 125.736667,7.88 124.642222,9.85 C123.328889,12.2577778 119.826667,13.79 115.23,13.5711111 C114.573333,13.5711111 113.916667,13.3522222 113.26,13.1333333 C112.822222,12.9144444 112.384444,12.4766667 112.384444,12.0388889 C112.384444,11.6011111 112.603333,11.1633333 112.822222,10.9444444 Z M102.315556,51.8766667 C101.877778,52.0955556 101.658889,52.0955556 101.221111,52.3144444 C99.0322222,52.5333333 97.2811111,50.7822222 96.8433333,48.3744444 C96.6244444,45.9666667 97.9377778,43.7777778 99.9077778,43.5588889 C100.345556,43.5588889 100.564444,43.1211111 100.564444,42.9022222 C100.564444,42.9022222 100.564444,42.6833333 100.564444,42.6833333 L100.564444,42.4644444 C100.564444,42.4644444 100.564444,42.2455556 100.564444,42.2455556 C100.126667,41.1511111 96.8433333,31.52 100.783333,23.2022222 C102.753333,18.8244444 106.474444,15.76 111.508889,13.79 C111.727778,14.2277778 112.384444,14.6655556 112.822222,14.8844444 C113.697778,15.1033333 114.354444,15.3222222 115.23,15.3222222 C115.448889,15.3222222 115.886667,15.3222222 116.105556,15.3222222 C120.264444,15.3222222 123.766667,14.0088889 125.298889,11.6011111 C140.183333,13.1333333 143.685556,28.0177778 144.561111,37.2111111 C144.561111,37.2111111 144.561111,37.43 144.561111,37.43 C145.217778,39.6188889 145.436667,42.0266667 145.436667,44.4344444 C144.998889,58.4433333 132.303333,63.2588889 121.358889,62.8211111 C113.26,62.6022222 106.474444,58.8811111 102.972222,52.7522222 C102.972222,51.8766667 102.534444,51.8766667 102.315556,51.8766667 Z M152.66,64.7911111 C148.282222,64.7911111 144.78,68.5122222 144.78,72.89 C144.78,73.5466667 144.998889,74.4222222 144.998889,75.0788889 L143.904444,75.2977778 C143.466667,72.2333333 142.153333,65.01 138.651111,59.3188889 C139.964444,58.4433333 141.058889,57.3488889 142.153333,56.2544444 L183.304444,63.9155556 L160.321111,70.4822222 C159.445556,67.1988889 156.381111,64.7911111 152.66,64.7911111 Z M159.226667,72.89 C159.226667,76.6111111 156.162222,79.6755556 152.66,79.6755556 C149.157778,79.6755556 146.093333,76.6111111 146.093333,72.89 C146.093333,69.1688889 149.157778,66.1044444 152.66,66.1044444 C156.162222,66.1044444 159.226667,69.1688889 159.226667,72.89 Z M115.667778,76.1733333 C111.29,76.1733333 107.787778,79.8944444 107.787778,84.2722222 C107.787778,84.71 107.787778,85.3666667 108.006667,85.8044444 L96.8433333,89.0877778 C99.9077778,67.4177778 106.912222,61.07 108.444444,59.9755556 C111.946667,62.3833333 116.543333,63.6966667 121.358889,63.9155556 C121.796667,63.9155556 122.234444,63.9155556 122.672222,63.9155556 C128.582222,63.9155556 133.397778,62.6022222 137.337778,60.4133333 C141.058889,65.8855556 142.153333,73.1088889 142.591111,75.9544444 L123.11,81.4266667 C122.015556,78.3622222 119.17,76.1733333 115.667778,76.1733333 Z M122.453333,84.2722222 C122.453333,87.9933333 119.388889,91.0577778 115.886667,91.0577778 C112.165556,91.0577778 109.32,87.9933333 109.32,84.2722222 C109.32,80.5511111 112.384444,77.4866667 115.886667,77.4866667 C119.388889,77.4866667 122.453333,80.5511111 122.453333,84.2722222 Z M104.942222,57.13 C105.598889,57.7866667 106.474444,58.4433333 107.131111,59.1 C104.723333,60.8511111 98.1566667,67.8555556 95.3111111,89.3066667 L72.9844444,95.6544444 L72.9844444,86.4611111 C72.9844444,82.74 71.0144444,79.4566667 67.95,77.4866667 C65.5422222,75.9544444 62.2588889,73.7655556 59.6322222,70.92 C58.7566667,70.0444444 58.1,69.1688889 57.2244444,68.2933333 L104.942222,57.13 Z M72.9844444,152.784444 L82.8344444,149.938889 L82.8344444,169.638889 L72.9844444,172.922222 L72.9844444,152.784444 Z M82.8344444,148.406667 C82.8344444,148.406667 82.8344444,148.406667 82.8344444,148.406667 L72.9844444,151.252222 L72.9844444,109.006667 L82.8344444,106.161111 L82.8344444,148.406667 Z M71.6711111,191.527778 C71.6711111,192.622222 71.2333333,193.716667 70.3577778,194.373333 C69.7011111,195.03 68.6066667,195.467778 67.5122222,195.467778 C67.5122222,195.467778 67.5122222,195.467778 67.5122222,195.467778 C67.0744444,195.467778 66.6366667,195.467778 65.98,195.248889 C64.4477778,194.592222 63.3533333,193.06 63.3533333,191.527778 L63.3533333,181.677778 C63.3533333,181.458889 63.1344444,181.021111 62.9155556,181.021111 L9.72555556,165.48 C9.72555556,165.48 9.50666667,165.48 9.50666667,165.48 C9.28777778,165.48 9.28777778,165.48 9.06888889,165.698889 C8.85,165.917778 8.85,165.917778 8.85,166.136667 L8.85,175.111111 C8.85,177.081111 7.09888889,178.832222 5.12888889,178.832222 C4.69111111,178.832222 4.25333333,178.832222 3.81555556,178.613333 C2.28333333,178.175556 1.40777778,176.643333 1.40777778,175.111111 L1.40777778,77.2677778 C1.40777778,73.9844444 3.37777778,71.1388889 6.44222222,70.0444444 C9.50666667,68.95 13.6655556,67.1988889 16.73,65.2288889 C18.0433333,64.3533333 19.1377778,63.2588889 20.4511111,62.1644444 C24.3911111,58.6622222 28.7688889,54.7222222 36.43,54.9411111 C43.6533333,55.16 47.3744444,59.5377778 53.7222222,66.5422222 C55.2544444,68.2933333 56.7866667,70.0444444 58.7566667,72.0144444 C61.6022222,74.86 64.8855556,77.2677778 67.5122222,78.8 C70.3577778,80.5511111 71.89,83.3966667 71.89,86.68 L71.89,191.527778 L71.6711111,191.527778 Z M72.9844444,174.235556 L83.71,170.514444 C83.9288889,170.514444 84.1477778,170.076667 84.1477778,169.857778 L84.1477778,105.285556 C84.1477778,105.066667 84.1477778,104.847778 83.9288889,104.847778 C83.71,104.628889 83.4911111,104.628889 83.2722222,104.847778 L72.9844444,107.912222 L72.9844444,97.4055556 L108.225556,87.3366667 C109.32,90.4011111 112.165556,92.59 115.667778,92.59 C120.045556,92.59 123.547778,88.8688889 123.547778,84.4911111 C123.547778,84.0533333 123.547778,83.3966667 123.328889,82.9588889 L145.217778,76.6111111 C146.531111,79.4566667 149.157778,81.2077778 152.441111,81.2077778 C156.818889,81.2077778 160.321111,77.4866667 160.321111,73.1088889 C160.321111,72.89 160.321111,72.4522222 160.321111,72.2333333 L186.15,64.7911111 C186.587778,64.7911111 187.025556,64.7911111 187.244444,65.01 C187.463333,65.2288889 187.682222,65.6666667 187.682222,65.8855556 L187.682222,73.1088889 C187.682222,73.5466667 187.244444,74.2033333 186.806667,74.2033333 L178.488889,76.83 C178.27,76.83 178.051111,77.2677778 178.051111,77.4866667 L178.051111,137.462222 C178.051111,137.681111 178.051111,137.9 178.27,138.118889 C178.488889,138.337778 178.707778,138.337778 178.926667,138.118889 L186.368889,135.492222 C186.806667,135.273333 187.244444,135.492222 187.463333,135.711111 C187.682222,135.93 187.901111,136.367778 187.901111,136.805556 L187.901111,143.591111 C187.901111,144.028889 187.463333,144.466667 187.025556,144.685556 L72.9844444,183.428889 L72.9844444,174.235556 Z M179.364444,135.054444 L181.553333,135.711111 L179.364444,136.367778 L179.364444,135.054444 Z M183.523333,135.054444 L179.145556,133.741111 L179.145556,120.826667 C179.145556,120.826667 179.364444,120.826667 179.364444,120.826667 C181.115556,119.951111 182.866667,118.637778 183.961111,117.105556 L183.961111,134.835556 L183.523333,135.054444 Z M185.493333,109.444444 C185.493333,113.603333 183.085556,117.543333 179.364444,119.294444 L179.364444,77.9244444 L185.493333,76.1733333 L185.493333,109.444444 Z M193.592222,156.505556 C193.592222,157.818889 192.935556,159.132222 191.841111,159.788889 C190.746667,160.445556 189.433333,160.664444 188.12,160.226667 C186.587778,159.57 185.493333,158.037778 185.493333,156.505556 L185.493333,146.655556 C185.493333,146.655556 185.493333,146.436667 185.493333,146.436667 L187.682222,145.78 C188.776667,145.342222 189.433333,144.466667 189.433333,143.372222 L189.433333,136.586667 C189.433333,135.711111 188.995556,135.054444 188.338889,134.397778 C187.682222,133.96 186.806667,133.741111 185.931111,133.96 L185.493333,134.178889 L185.493333,114.916667 C186.368889,113.165556 186.806667,111.414444 186.806667,109.444444 L186.806667,75.7355556 C186.806667,75.7355556 186.806667,75.7355556 186.806667,75.7355556 L187.463333,75.5166667 C188.557778,75.2977778 189.214444,74.2033333 189.214444,73.1088889 L189.214444,65.8855556 C189.214444,65.01 188.776667,64.3533333 188.12,63.9155556 C187.463333,63.4777778 186.806667,63.2588889 186.15,63.4777778 L143.028889,55.3788889 C145.436667,52.3144444 146.75,48.5933333 146.75,44.2155556 C146.75,41.8077778 146.531111,39.4 145.874444,36.9922222 C145.655556,33.7088889 144.998889,29.7688889 143.685556,25.8288889 C143.685556,25.8288889 143.904444,25.8288889 143.904444,25.61 C147.406667,22.5455556 151.565556,19.7 158.132222,20.1377778 C165.355556,20.3566667 169.076667,24.7344444 175.424444,31.7388889 C176.956667,33.49 178.488889,35.2411111 180.458889,37.2111111 C183.304444,40.0566667 186.587778,42.4644444 189.214444,43.9966667 C192.06,45.7477778 193.592222,48.5933333 193.592222,51.8766667 L193.592222,156.505556 L193.592222,156.505556 Z"></path>
                    <path d="M172.141111,78.5811111 L160.758889,81.8644444 C160.54,81.8644444 160.321111,82.3022222 160.321111,82.5211111 L160.321111,143.372222 C160.321111,143.591111 160.321111,143.81 160.54,144.028889 C160.758889,144.028889 160.758889,144.247778 160.977778,144.247778 C160.977778,144.247778 161.196667,144.247778 161.196667,144.247778 L172.578889,140.307778 C172.797778,140.307778 173.016667,139.87 173.016667,139.651111 L173.016667,79.2377778 C173.016667,79.0188889 173.016667,78.8 172.797778,78.8 C172.36,78.5811111 172.141111,78.5811111 172.141111,78.5811111 Z M171.484444,80.1133333 L171.484444,121.702222 L161.634444,124.766667 L161.634444,83.1777778 L171.484444,80.1133333 Z M161.634444,126.298889 L169.076667,124.11 L169.076667,130.676667 L161.634444,128.268889 L161.634444,126.298889 Z M161.634444,140.745556 L164.48,141.621111 L161.634444,142.715556 L161.634444,140.745556 Z M166.668889,140.745556 L161.415556,139.213333 L161.415556,129.363333 L169.514444,131.99 C169.514444,131.99 169.733333,131.99 169.733333,131.99 C169.952222,131.99 169.952222,131.99 170.171111,131.771111 C170.39,131.552222 170.39,131.333333 170.39,131.333333 L170.39,123.453333 L171.484444,123.015556 L171.484444,138.994444 L166.668889,140.745556 Z"></path>
                    <path d="M136.462222,89.0877778 L125.08,92.3711111 C124.861111,92.3711111 124.642222,92.8088889 124.642222,93.0277778 L124.642222,155.63 C124.642222,155.848889 124.642222,156.067778 124.861111,156.286667 C125.08,156.286667 125.08,156.505556 125.298889,156.505556 C125.298889,156.505556 125.517778,156.505556 125.517778,156.505556 L136.9,152.565556 C137.118889,152.565556 137.337778,152.127778 137.337778,151.908889 L137.337778,89.7444444 C137.337778,89.5255556 137.337778,89.3066667 137.118889,89.3066667 C136.9,89.0877778 136.681111,89.0877778 136.462222,89.0877778 Z M136.024444,90.62 L136.024444,132.427778 L125.955556,135.492222 L125.955556,93.4655556 L136.024444,90.62 Z M126.174444,136.805556 C126.174444,136.805556 126.174444,136.805556 126.174444,136.805556 L130.771111,135.492222 L130.771111,140.088889 C130.771111,141.402222 130.114444,142.496667 129.238889,143.153333 C128.363333,143.81 127.268889,144.028889 126.174444,143.591111 L126.174444,136.805556 Z M126.174444,154.754444 L126.174444,145.123333 C126.393333,145.123333 126.831111,145.123333 127.05,145.123333 C128.144444,145.123333 129.02,144.904444 129.895556,144.247778 C131.208889,143.372222 132.084444,141.84 132.084444,140.088889 L132.084444,135.054444 L136.024444,133.96 L136.024444,151.252222 L126.174444,154.754444 Z"></path>
                    <path d="M118.732222,94.3411111 L107.35,97.6244444 C107.131111,97.6244444 106.912222,98.0622222 106.912222,98.2811111 L106.912222,161.758889 C106.912222,161.977778 106.912222,162.196667 107.131111,162.415556 C107.35,162.415556 107.35,162.634444 107.568889,162.634444 C107.568889,162.634444 107.787778,162.634444 107.787778,162.634444 L119.17,158.694444 C119.388889,158.694444 119.607778,158.256667 119.607778,158.037778 L119.607778,94.9977778 C119.607778,94.7788889 119.607778,94.56 119.388889,94.56 C119.17,94.3411111 118.951111,94.1222222 118.732222,94.3411111 Z M118.294444,95.8733333 L118.294444,137.9 C118.294444,137.9 118.294444,137.9 118.294444,137.9 L108.225556,140.964444 L108.225556,98.7188889 L118.294444,95.8733333 Z M108.225556,160.664444 L108.225556,142.058889 C108.225556,142.058889 108.225556,142.058889 108.225556,142.058889 C108.225556,142.058889 108.444444,142.058889 108.444444,142.058889 L118.075556,139.213333 L118.075556,157.381111 L108.225556,160.664444 Z"></path>
                    <path d="M154.192222,83.8344444 L142.81,87.1177778 C142.591111,87.1177778 142.372222,87.5555556 142.372222,87.7744444 L142.372222,149.501111 C142.372222,149.72 142.372222,149.938889 142.591111,150.157778 C142.81,150.157778 142.81,150.376667 143.028889,150.376667 C143.028889,150.376667 143.247778,150.376667 143.247778,150.376667 L154.63,146.436667 C154.848889,146.436667 155.067778,145.998889 155.067778,145.78 L155.067778,84.4911111 C155.067778,84.2722222 155.067778,84.0533333 154.848889,84.0533333 C154.63,83.8344444 154.411111,83.8344444 154.192222,83.8344444 Z M143.904444,131.552222 C143.904444,131.552222 143.904444,131.552222 143.904444,131.552222 L153.973333,128.487778 L153.973333,137.024444 L143.904444,134.178889 L143.904444,131.552222 Z M153.754444,85.3666667 L153.754444,127.174444 L143.685556,130.238889 L143.685556,88.4311111 L153.754444,85.3666667 Z M143.904444,148.625556 L143.904444,135.492222 L153.973333,138.337778 L153.973333,145.123333 L143.904444,148.625556 Z"></path>
                    <path d="M101.002222,99.3755556 L89.62,102.877778 C89.4011111,102.877778 89.1822222,103.315556 89.1822222,103.534444 L89.1822222,167.887778 C89.1822222,168.106667 89.1822222,168.325556 89.4011111,168.544444 C89.62,168.544444 89.62,168.763333 89.8388889,168.763333 C89.8388889,168.763333 90.0577778,168.763333 90.0577778,168.763333 L101.44,164.823333 C101.658889,164.823333 101.877778,164.385556 101.877778,164.166667 L101.877778,100.032222 C101.877778,99.8133333 101.877778,99.5944444 101.658889,99.5944444 C101.44,99.3755556 101.221111,99.3755556 101.002222,99.3755556 Z M100.564444,100.907778 L100.564444,142.934444 L90.4955556,145.998889 L90.4955556,103.972222 L100.564444,100.907778 Z M90.4955556,166.793333 L90.4955556,147.531111 L100.564444,144.466667 L100.564444,163.291111 L90.4955556,166.793333 Z"></path>
                    <path d="M48.0311111,110.538889 L38.6188889,108.131111 C38.4,108.131111 38.1811111,108.131111 37.9622222,108.35 C37.7433333,108.568889 37.7433333,108.568889 37.7433333,108.787778 L37.7433333,163.51 C37.7433333,163.728889 37.9622222,164.166667 38.1811111,164.166667 L47.5933333,167.012222 C47.5933333,167.012222 47.8122222,167.012222 47.8122222,167.012222 C48.0311111,167.012222 48.0311111,167.012222 48.25,166.793333 C48.4688889,166.574444 48.4688889,166.574444 48.4688889,166.355556 L48.4688889,111.195556 C48.6877778,110.757778 48.4688889,110.538889 48.0311111,110.538889 Z M47.1555556,111.633333 L47.1555556,146.874444 L39.0566667,144.685556 C39.0566667,144.685556 39.0566667,144.685556 39.0566667,144.685556 L39.0566667,109.663333 L47.1555556,111.633333 Z M39.0566667,163.072222 L39.0566667,146.217778 L47.1555556,148.406667 L47.1555556,165.48 L39.0566667,163.072222 Z"></path>
                    <path d="M63.1344444,114.26 L53.9411111,111.852222 C53.7222222,111.852222 53.5033333,111.852222 53.2844444,112.071111 C53.0655556,112.29 53.0655556,112.29 53.0655556,112.508889 L53.0655556,168.106667 C53.0655556,168.325556 53.2844444,168.763333 53.5033333,168.763333 L62.6966667,171.608889 C62.6966667,171.608889 62.9155556,171.608889 62.9155556,171.608889 C63.1344444,171.608889 63.1344444,171.608889 63.3533333,171.39 C63.5722222,171.171111 63.5722222,171.171111 63.5722222,170.952222 L63.5722222,114.916667 C63.5722222,114.697778 63.3533333,114.26 63.1344444,114.26 Z M62.2588889,115.354444 L62.2588889,151.033333 L54.3788889,148.844444 L54.3788889,113.384444 L62.2588889,115.354444 Z M54.3788889,167.668889 L54.3788889,150.376667 L62.2588889,152.565556 L62.2588889,170.295556 L54.3788889,167.668889 Z"></path>
                    <path d="M71.89,73.3277778 C71.89,74.2033333 72.7655556,75.0788889 73.6411111,75.0788889 C74.5166667,75.0788889 75.3922222,74.4222222 75.3922222,73.3277778 C76.2677778,73.1088889 76.7055556,72.4522222 76.7055556,71.5766667 C76.7055556,70.7011111 76.0488889,70.0444444 75.3922222,69.8255556 C75.3922222,69.8255556 75.3922222,69.8255556 75.3922222,69.8255556 C75.3922222,68.7311111 74.5166667,68.0744444 73.6411111,68.0744444 C72.5466667,68.0744444 71.89,68.95 71.89,69.8255556 C71.89,69.8255556 71.89,69.8255556 71.89,69.8255556 C71.0144444,70.0444444 70.3577778,70.7011111 70.3577778,71.5766667 C70.3577778,72.4522222 71.0144444,73.1088889 71.89,73.3277778 Z M72.3277778,70.92 C72.5466667,70.92 72.5466667,70.92 72.5466667,70.92 C72.7655556,71.1388889 73.2033333,71.1388889 73.4222222,70.92 C73.6411111,70.7011111 73.6411111,70.7011111 73.6411111,70.2633333 C73.6411111,70.0444444 73.6411111,69.8255556 73.4222222,69.6066667 C73.2033333,69.6066667 73.2033333,69.3877778 73.2033333,69.1688889 C73.2033333,68.95 73.4222222,68.7311111 73.6411111,68.7311111 C73.86,68.7311111 74.0788889,68.95 74.0788889,69.1688889 C74.0788889,69.3877778 74.0788889,69.3877778 73.86,69.6066667 C73.6411111,69.8255556 73.6411111,70.0444444 73.6411111,70.0444444 C73.6411111,70.2633333 73.6411111,70.4822222 73.86,70.7011111 C74.0788889,70.92 74.5166667,70.92 74.7355556,70.7011111 C74.7355556,70.7011111 74.9544444,70.7011111 74.9544444,70.7011111 C75.1733333,70.7011111 75.3922222,70.92 75.3922222,71.1388889 C75.3922222,71.3577778 75.1733333,71.7955556 74.7355556,71.5766667 C74.5166667,71.5766667 74.0788889,71.5766667 74.0788889,71.7955556 C73.86,72.0144444 73.86,72.2333333 74.0788889,72.4522222 C74.0788889,72.4522222 74.0788889,72.6711111 74.0788889,72.6711111 C74.0788889,72.89 73.86,73.1088889 73.6411111,73.1088889 C73.4222222,73.1088889 73.2033333,72.89 73.2033333,72.6711111 C73.2033333,72.6711111 73.2033333,72.4522222 73.2033333,72.4522222 C73.4222222,72.2333333 73.2033333,71.7955556 73.2033333,71.5766667 C72.9844444,71.3577778 72.9844444,71.3577778 72.7655556,71.3577778 C72.7655556,71.3577778 72.5466667,71.3577778 72.5466667,71.3577778 C72.3277778,71.5766667 71.89,71.1388889 71.89,70.92 C71.89,71.1388889 71.89,70.92 72.3277778,70.92 Z"></path>
                    <path d="M85.4611111,82.3022222 C85.4611111,83.1777778 86.3366667,84.0533333 87.2122222,84.0533333 C88.0877778,84.0533333 88.9633333,83.3966667 88.9633333,82.3022222 C89.8388889,82.0833333 90.2766667,81.4266667 90.2766667,80.5511111 C90.2766667,79.6755556 89.62,79.0188889 88.9633333,78.8 C88.9633333,78.8 88.9633333,78.8 88.9633333,78.8 C88.9633333,77.7055556 88.0877778,77.0488889 87.2122222,77.0488889 C86.1177778,77.0488889 85.4611111,77.9244444 85.4611111,78.8 C85.4611111,78.8 85.4611111,78.8 85.4611111,78.8 C84.5855556,79.0188889 83.9288889,79.6755556 83.9288889,80.5511111 C84.1477778,81.4266667 84.8044444,82.3022222 85.4611111,82.3022222 Z M86.3366667,80.3322222 C86.5555556,80.5511111 86.9933333,80.5511111 87.2122222,80.3322222 C87.4311111,80.1133333 87.4311111,79.8944444 87.4311111,79.8944444 C87.4311111,79.6755556 87.4311111,79.4566667 87.2122222,79.4566667 C86.9933333,79.4566667 86.9933333,79.2377778 86.9933333,79.0188889 C86.9933333,78.8 87.2122222,78.5811111 87.4311111,78.5811111 C87.65,78.5811111 87.8688889,78.8 87.8688889,79.0188889 C87.8688889,79.2377778 87.8688889,79.2377778 87.65,79.4566667 C87.4311111,79.6755556 87.4311111,79.8944444 87.4311111,80.1133333 C87.4311111,80.3322222 87.65,80.5511111 87.65,80.77 C87.8688889,80.9888889 88.3066667,80.9888889 88.5255556,80.77 C88.7444444,80.5511111 89.1822222,80.77 89.1822222,81.2077778 C89.1822222,81.4266667 88.9633333,81.8644444 88.5255556,81.6455556 C88.3066667,81.6455556 87.8688889,81.6455556 87.8688889,81.8644444 C87.65,82.0833333 87.65,82.3022222 87.8688889,82.5211111 C87.8688889,82.5211111 87.8688889,82.74 87.8688889,82.74 C87.8688889,82.9588889 87.65,83.1777778 87.4311111,83.1777778 C87.2122222,83.1777778 86.9933333,82.9588889 86.9933333,82.74 C86.9933333,82.74 86.9933333,82.5211111 86.9933333,82.5211111 C87.2122222,82.3022222 86.9933333,81.8644444 86.9933333,81.6455556 C86.7744444,80.9888889 86.5555556,80.9888889 86.3366667,80.9888889 C86.3366667,80.9888889 86.1177778,80.9888889 86.1177778,80.9888889 C85.8988889,81.2077778 85.4611111,80.77 85.4611111,80.5511111 C85.4611111,80.3322222 85.8988889,79.8944444 86.3366667,80.3322222 Z"></path>
                    <path d="M93.56,68.7311111 C93.56,69.6066667 94.4355556,70.4822222 95.3111111,70.4822222 C96.1866667,70.4822222 97.0622222,69.8255556 97.0622222,68.7311111 C97.9377778,68.5122222 98.3755556,67.8555556 98.3755556,66.98 C98.3755556,66.1044444 97.7188889,65.4477778 97.0622222,65.2288889 C97.0622222,65.2288889 97.0622222,65.2288889 97.0622222,65.2288889 C97.0622222,64.1344444 96.1866667,63.4777778 95.3111111,63.4777778 C94.2166667,63.4777778 93.56,64.3533333 93.56,65.2288889 C93.56,65.2288889 93.56,65.2288889 93.56,65.2288889 C92.6844444,65.4477778 92.0277778,66.1044444 92.0277778,66.98 C92.0277778,67.8555556 92.6844444,68.5122222 93.56,68.7311111 Z M93.7788889,66.3233333 C93.9977778,66.3233333 93.9977778,66.3233333 93.9977778,66.3233333 C94.2166667,66.5422222 94.6544444,66.5422222 94.8733333,66.3233333 C95.0922222,66.1044444 95.0922222,65.8855556 95.0922222,65.8855556 C95.0922222,65.6666667 95.0922222,65.4477778 94.8733333,65.4477778 C94.6544444,65.4477778 94.6544444,65.2288889 94.6544444,65.01 C94.6544444,64.7911111 94.8733333,64.5722222 95.0922222,64.5722222 C95.3111111,64.5722222 95.53,64.7911111 95.53,65.01 C95.53,65.2288889 95.53,65.2288889 95.3111111,65.4477778 C95.3111111,65.4477778 95.3111111,65.6666667 95.3111111,65.8855556 C95.3111111,66.1044444 95.53,66.3233333 95.53,66.5422222 C95.7488889,66.7611111 96.1866667,66.7611111 96.4055556,66.5422222 C96.6244444,66.3233333 97.0622222,66.5422222 97.0622222,66.98 C97.0622222,67.1988889 96.8433333,67.6366667 96.4055556,67.4177778 C96.1866667,67.4177778 95.7488889,67.4177778 95.7488889,67.6366667 C95.53,67.8555556 95.53,68.0744444 95.7488889,68.2933333 C95.7488889,68.2933333 95.7488889,68.5122222 95.7488889,68.5122222 C95.7488889,68.7311111 95.53,68.95 95.3111111,68.95 C95.0922222,68.95 94.8733333,68.7311111 94.8733333,68.5122222 C94.8733333,68.5122222 94.8733333,68.2933333 94.8733333,68.2933333 C95.0922222,68.0744444 94.8733333,67.6366667 94.8733333,67.4177778 C94.6544444,67.1988889 94.6544444,67.1988889 94.4355556,67.1988889 C94.4355556,67.1988889 94.2166667,67.1988889 94.2166667,67.1988889 C93.9977778,67.4177778 93.56,66.98 93.56,66.7611111 C93.3411111,66.5422222 93.56,66.3233333 93.7788889,66.3233333 Z"></path>
                    <path d="M148.063333,60.8511111 C148.063333,60.8511111 148.063333,60.8511111 148.063333,60.8511111 C148.063333,59.7566667 147.187778,58.8811111 146.312222,58.8811111 C145.217778,58.8811111 144.561111,59.7566667 144.561111,60.6322222 C144.561111,60.6322222 144.561111,60.6322222 144.561111,60.6322222 C143.685556,60.8511111 143.028889,61.5077778 143.028889,62.3833333 C143.028889,63.2588889 143.685556,63.9155556 144.561111,64.1344444 C144.561111,65.01 145.436667,65.8855556 146.312222,65.8855556 C147.187778,65.8855556 148.063333,65.2288889 148.063333,64.1344444 C148.938889,63.9155556 149.376667,63.2588889 149.376667,62.3833333 C149.376667,61.7266667 148.938889,61.07 148.063333,60.8511111 Z M146.312222,60.4133333 C146.531111,60.4133333 146.75,60.6322222 146.75,60.8511111 C146.75,61.07 146.75,61.07 146.531111,61.2888889 C146.312222,61.2888889 146.312222,61.5077778 146.312222,61.7266667 C146.312222,61.5077778 146.093333,61.5077778 146.093333,61.2888889 C145.874444,61.2888889 145.874444,61.07 145.874444,60.8511111 C145.655556,60.6322222 145.874444,60.4133333 146.312222,60.4133333 Z M147.406667,63.04 C147.187778,63.04 146.75,63.04 146.75,63.2588889 C146.531111,63.4777778 146.531111,63.6966667 146.75,63.9155556 C146.75,63.9155556 146.75,64.1344444 146.75,64.1344444 C146.75,64.3533333 146.531111,64.5722222 146.312222,64.5722222 C146.093333,64.5722222 145.874444,64.3533333 145.874444,64.1344444 C145.874444,64.1344444 145.874444,63.9155556 145.874444,63.9155556 C146.093333,63.6966667 145.874444,63.2588889 145.874444,63.04 C145.655556,62.8211111 145.655556,62.8211111 145.436667,62.8211111 C145.436667,62.8211111 145.217778,62.8211111 145.217778,62.8211111 C144.998889,63.04 144.561111,62.6022222 144.561111,62.3833333 C144.561111,61.9455556 144.998889,61.7266667 145.217778,61.9455556 C145.436667,62.1644444 145.874444,62.1644444 146.093333,61.9455556 C146.312222,61.9455556 146.312222,61.7266667 146.312222,61.5077778 C146.312222,61.7266667 146.531111,61.7266667 146.531111,61.9455556 C146.75,62.1644444 147.187778,62.1644444 147.406667,61.9455556 C147.625556,61.7266667 148.063333,61.9455556 148.063333,62.3833333 C148.063333,63.04 147.844444,63.2588889 147.406667,63.04 Z"></path>
                    <path d="M167.544444,63.6966667 C167.544444,63.6966667 167.544444,63.6966667 167.544444,63.6966667 C167.544444,62.6022222 166.668889,61.7266667 165.793333,61.7266667 C164.917778,61.7266667 164.042222,62.6022222 164.042222,63.4777778 C164.042222,63.4777778 164.042222,63.4777778 164.042222,63.4777778 C163.166667,63.6966667 162.51,64.3533333 162.51,65.2288889 C162.51,66.1044444 163.166667,66.7611111 164.042222,66.98 C164.042222,67.8555556 164.917778,68.7311111 165.793333,68.7311111 C166.668889,68.7311111 167.544444,68.0744444 167.544444,66.98 C168.42,66.7611111 168.857778,66.1044444 168.857778,65.2288889 C169.076667,64.7911111 168.42,63.9155556 167.544444,63.6966667 Z M167.106667,65.8855556 C166.887778,65.8855556 166.45,65.8855556 166.45,66.1044444 C166.231111,66.3233333 166.231111,66.5422222 166.45,66.7611111 C166.45,66.7611111 166.45,66.98 166.45,66.98 C166.45,67.1988889 166.231111,67.4177778 166.012222,67.4177778 C165.793333,67.4177778 165.574444,67.1988889 165.574444,66.98 C165.574444,66.98 165.574444,66.7611111 165.574444,66.7611111 C165.793333,66.5422222 165.574444,66.1044444 165.574444,65.8855556 C165.355556,65.6666667 165.355556,65.6666667 165.136667,65.6666667 C165.136667,65.6666667 164.917778,65.6666667 164.917778,65.6666667 C164.698889,65.8855556 164.261111,65.4477778 164.261111,65.2288889 C164.261111,65.01 164.48,64.7911111 164.698889,64.7911111 C164.917778,64.7911111 164.917778,64.7911111 164.917778,64.7911111 C165.136667,65.01 165.574444,65.01 165.793333,64.7911111 C166.012222,64.5722222 166.012222,64.3533333 166.012222,64.3533333 C166.012222,64.1344444 166.012222,63.9155556 165.793333,63.6966667 C165.574444,63.6966667 165.574444,63.4777778 165.574444,63.2588889 C165.574444,63.04 165.793333,62.8211111 166.012222,62.8211111 C166.231111,62.8211111 166.45,63.04 166.45,63.2588889 C166.45,63.4777778 166.45,63.4777778 166.231111,63.6966667 C166.012222,63.9155556 166.012222,63.9155556 166.012222,64.1344444 C166.012222,64.3533333 166.012222,64.5722222 166.231111,64.7911111 C166.45,65.01 166.887778,65.01 167.106667,64.7911111 C167.106667,64.7911111 167.325556,64.7911111 167.325556,64.7911111 C167.544444,64.7911111 167.763333,65.01 167.763333,65.2288889 C167.544444,65.8855556 167.325556,66.1044444 167.106667,65.8855556 Z"></path>
                </g>
            </g>
            <g mask="url(#mask-2)">
                <g transform="translate(605.000000, 19.000000)">
                    <text id="R(ead)(B)abbling" fill="none" font-family="CrimsonText-Regular, Crimson Text" font-size="70" font-weight="normal">
                        <tspan x="0" y="70" fill="#F4A582">R</tspan>
                        <tspan x="45.1171875" y="70" font-size="48" fill="#9B9B9B" fill-opacity="0.329313859">(ead)(B)</tspan>
                        <tspan x="196.617188" y="70" font-family="Unkempt" font-size="48" fill="#FFFFFF">abbling</tspan>
                    </text>
                    <path d="M27.0694772,24.1222331 C26.9413484,24.0966074 26.8132196,24.1222331 26.7107166,24.1734847 C26.6082136,24.2503619 26.5313363,24.352865 26.5313363,24.4809938 C26.3007045,26.1466681 25.3525514,27.1716984 24.8400362,27.7098393 C24.7375332,27.8123423 24.6606559,27.9148454 24.6094044,27.9660969 C24.5325271,28.0685999 24.4043983,28.171103 24.2762696,28.2992317 C23.7637544,28.8373727 23.0462332,29.5548939 23.3281165,30.2980409 C23.6612514,31.1180652 24.5837787,31.1180652 25.2500484,31.0924394 C25.5063059,31.0924394 25.7625635,31.0924394 25.9163181,31.1180652 C26.1213241,31.1693167 26.2238272,31.2718197 26.3007045,31.4255743 C26.4032075,31.6818318 26.3263302,32.0662182 26.2494529,32.2199728 C26.1982014,32.3481016 26.1982014,32.4762303 26.2494529,32.6043591 C26.3007045,32.7324879 26.4288332,32.8093652 26.556962,32.834991 C28.8120288,33.1937516 30.4520773,33.8856471 30.6058318,34.3469107 C30.3752,34.6544198 28.5813969,34.8594259 26.7875939,34.7569228 C26.6850908,34.7569228 26.6082136,34.7825486 26.5313363,34.8338001 C26.4288332,34.9106774 25.8906923,35.269438 25.9163181,35.7819532 C25.9163181,35.9869592 26.0188211,36.2688426 26.454459,36.4738486 C26.6594651,36.5763517 26.8644711,36.6788547 26.6338393,37.5245047 C26.6082136,37.6526335 26.556962,37.8063881 26.5057105,37.9601426 C26.2750787,38.7289154 25.9931954,39.6514427 26.5313363,40.3177124 C26.9157227,40.778976 27.6332439,40.9583563 28.6839,40.8302275 C28.7095257,40.8302275 28.7351515,40.8302275 28.7607773,40.8302275 L32.4252607,39.8564487 C32.4765122,39.8820745 32.5533895,39.933326 32.604641,40.0102033 C32.6815183,40.1383321 32.8096471,40.57397 32.2971319,41.6502518 C32.2202546,41.8296321 32.2458804,42.0346382 32.3996349,42.162767 C32.4765122,42.2396443 32.5790152,42.26527 32.6815183,42.26527 C32.7583955,42.26527 32.8352728,42.2396443 32.9121501,42.1883927 C34.834082,40.9071048 35.3465971,37.5245047 35.3722229,37.3707502 C36.7816396,26.8129378 27.1719802,24.1478589 27.0694772,24.1222331 Z" id="Shape" fill="#000000" fill-rule="nonzero" transform="translate(29.388965, 33.188725) rotate(344.000000) translate(-29.388965, -33.188725) "></path>
                </g>
            </g>
        </g>
    </g>
</svg>